M48
;DRILL file {KiCad 5.0.0} date Sun Nov 11 13:35:31 2018
;FORMAT={-:-/ absolute / inch / decimal}
FMAT,2
INCH,TZ
T1C0.0157
T2C0.0394
%
G90
G05
M72
T1
X7.275Y-3.395
X7.275Y-3.565
X7.425Y-3.475
X7.43Y-3.335
X7.445Y-3.39
X7.485Y-3.485
X7.58Y-3.555
X7.61Y-3.36
X7.69Y-3.68
X7.72Y-3.13
X7.725Y-3.37
X7.725Y-3.62
X7.76Y-3.35
X7.77Y-3.53
X7.77Y-3.57
X7.77Y-3.61
X7.775Y-3.47
X7.81Y-3.53
X7.83Y-3.385
X7.88Y-3.35
X7.945Y-3.13
X7.995Y-3.46
X7.995Y-3.52
X8.Y-3.33
T2
X8.075Y-3.2
X8.075Y-3.3
X8.075Y-3.4
X8.075Y-3.5
X8.075Y-3.6
X7.2Y-3.2
X7.2Y-3.3
X7.2Y-3.4
X7.2Y-3.5
X7.2Y-3.6
X7.37Y-3.175
X7.37Y-3.275
X7.47Y-3.175
X7.47Y-3.275
X7.57Y-3.175
X7.57Y-3.275
X7.67Y-3.175
X7.67Y-3.275
X7.77Y-3.175
X7.77Y-3.275
X7.87Y-3.175
X7.87Y-3.275
T0
M30
