G04 #@! TF.GenerationSoftware,KiCad,Pcbnew,5.0.0*
G04 #@! TF.CreationDate,2018-11-11T13:40:21-05:00*
G04 #@! TF.ProjectId,Pi-I2C-Level-Shifter,50692D4932432D4C6576656C2D536869,rev?*
G04 #@! TF.SameCoordinates,Original*
G04 #@! TF.FileFunction,Soldermask,Top*
G04 #@! TF.FilePolarity,Negative*
%FSLAX46Y46*%
G04 Gerber Fmt 4.6, Leading zero omitted, Abs format (unit mm)*
G04 Created by KiCad (PCBNEW 5.0.0) date Sun Nov 11 13:40:21 2018*
%MOMM*%
%LPD*%
G01*
G04 APERTURE LIST*
%ADD10R,2.100000X2.100000*%
%ADD11O,2.100000X2.100000*%
%ADD12R,1.900000X0.850000*%
%ADD13C,0.100000*%
%ADD14C,1.375000*%
%ADD15R,1.500000X0.800000*%
%ADD16C,1.500000*%
G04 APERTURE END LIST*
D10*
G04 #@! TO.C,J2*
X187198000Y-83185000D03*
D11*
X187198000Y-80645000D03*
X189738000Y-83185000D03*
X189738000Y-80645000D03*
X192278000Y-83185000D03*
X192278000Y-80645000D03*
X194818000Y-83185000D03*
X194818000Y-80645000D03*
X197358000Y-83185000D03*
X197358000Y-80645000D03*
X199898000Y-83185000D03*
X199898000Y-80645000D03*
G04 #@! TD*
D12*
G04 #@! TO.C,U2*
X194027000Y-88784000D03*
X194027000Y-89434000D03*
X194027000Y-90084000D03*
X194027000Y-90734000D03*
X194027000Y-91384000D03*
X194027000Y-92034000D03*
X194027000Y-92684000D03*
X194027000Y-93334000D03*
X199927000Y-93334000D03*
X199927000Y-92684000D03*
X199927000Y-92034000D03*
X199927000Y-91384000D03*
X199927000Y-90734000D03*
X199927000Y-90084000D03*
X199927000Y-89434000D03*
X199927000Y-88784000D03*
G04 #@! TD*
D13*
G04 #@! TO.C,C3*
G36*
X200450943Y-85969655D02*
X200484312Y-85974605D01*
X200517035Y-85982802D01*
X200548797Y-85994166D01*
X200579293Y-86008590D01*
X200608227Y-86025932D01*
X200635323Y-86046028D01*
X200660318Y-86068682D01*
X200682972Y-86093677D01*
X200703068Y-86120773D01*
X200720410Y-86149707D01*
X200734834Y-86180203D01*
X200746198Y-86211965D01*
X200754395Y-86244688D01*
X200759345Y-86278057D01*
X200761000Y-86311750D01*
X200761000Y-87424250D01*
X200759345Y-87457943D01*
X200754395Y-87491312D01*
X200746198Y-87524035D01*
X200734834Y-87555797D01*
X200720410Y-87586293D01*
X200703068Y-87615227D01*
X200682972Y-87642323D01*
X200660318Y-87667318D01*
X200635323Y-87689972D01*
X200608227Y-87710068D01*
X200579293Y-87727410D01*
X200548797Y-87741834D01*
X200517035Y-87753198D01*
X200484312Y-87761395D01*
X200450943Y-87766345D01*
X200417250Y-87768000D01*
X199729750Y-87768000D01*
X199696057Y-87766345D01*
X199662688Y-87761395D01*
X199629965Y-87753198D01*
X199598203Y-87741834D01*
X199567707Y-87727410D01*
X199538773Y-87710068D01*
X199511677Y-87689972D01*
X199486682Y-87667318D01*
X199464028Y-87642323D01*
X199443932Y-87615227D01*
X199426590Y-87586293D01*
X199412166Y-87555797D01*
X199400802Y-87524035D01*
X199392605Y-87491312D01*
X199387655Y-87457943D01*
X199386000Y-87424250D01*
X199386000Y-86311750D01*
X199387655Y-86278057D01*
X199392605Y-86244688D01*
X199400802Y-86211965D01*
X199412166Y-86180203D01*
X199426590Y-86149707D01*
X199443932Y-86120773D01*
X199464028Y-86093677D01*
X199486682Y-86068682D01*
X199511677Y-86046028D01*
X199538773Y-86025932D01*
X199567707Y-86008590D01*
X199598203Y-85994166D01*
X199629965Y-85982802D01*
X199662688Y-85974605D01*
X199696057Y-85969655D01*
X199729750Y-85968000D01*
X200417250Y-85968000D01*
X200450943Y-85969655D01*
X200450943Y-85969655D01*
G37*
D14*
X200073500Y-86868000D03*
D13*
G36*
X198575943Y-85969655D02*
X198609312Y-85974605D01*
X198642035Y-85982802D01*
X198673797Y-85994166D01*
X198704293Y-86008590D01*
X198733227Y-86025932D01*
X198760323Y-86046028D01*
X198785318Y-86068682D01*
X198807972Y-86093677D01*
X198828068Y-86120773D01*
X198845410Y-86149707D01*
X198859834Y-86180203D01*
X198871198Y-86211965D01*
X198879395Y-86244688D01*
X198884345Y-86278057D01*
X198886000Y-86311750D01*
X198886000Y-87424250D01*
X198884345Y-87457943D01*
X198879395Y-87491312D01*
X198871198Y-87524035D01*
X198859834Y-87555797D01*
X198845410Y-87586293D01*
X198828068Y-87615227D01*
X198807972Y-87642323D01*
X198785318Y-87667318D01*
X198760323Y-87689972D01*
X198733227Y-87710068D01*
X198704293Y-87727410D01*
X198673797Y-87741834D01*
X198642035Y-87753198D01*
X198609312Y-87761395D01*
X198575943Y-87766345D01*
X198542250Y-87768000D01*
X197854750Y-87768000D01*
X197821057Y-87766345D01*
X197787688Y-87761395D01*
X197754965Y-87753198D01*
X197723203Y-87741834D01*
X197692707Y-87727410D01*
X197663773Y-87710068D01*
X197636677Y-87689972D01*
X197611682Y-87667318D01*
X197589028Y-87642323D01*
X197568932Y-87615227D01*
X197551590Y-87586293D01*
X197537166Y-87555797D01*
X197525802Y-87524035D01*
X197517605Y-87491312D01*
X197512655Y-87457943D01*
X197511000Y-87424250D01*
X197511000Y-86311750D01*
X197512655Y-86278057D01*
X197517605Y-86244688D01*
X197525802Y-86211965D01*
X197537166Y-86180203D01*
X197551590Y-86149707D01*
X197568932Y-86120773D01*
X197589028Y-86093677D01*
X197611682Y-86068682D01*
X197636677Y-86046028D01*
X197663773Y-86025932D01*
X197692707Y-86008590D01*
X197723203Y-85994166D01*
X197754965Y-85982802D01*
X197787688Y-85974605D01*
X197821057Y-85969655D01*
X197854750Y-85968000D01*
X198542250Y-85968000D01*
X198575943Y-85969655D01*
X198575943Y-85969655D01*
G37*
D14*
X198198500Y-86868000D03*
G04 #@! TD*
D13*
G04 #@! TO.C,R4*
G36*
X202900943Y-92072655D02*
X202934312Y-92077605D01*
X202967035Y-92085802D01*
X202998797Y-92097166D01*
X203029293Y-92111590D01*
X203058227Y-92128932D01*
X203085323Y-92149028D01*
X203110318Y-92171682D01*
X203132972Y-92196677D01*
X203153068Y-92223773D01*
X203170410Y-92252707D01*
X203184834Y-92283203D01*
X203196198Y-92314965D01*
X203204395Y-92347688D01*
X203209345Y-92381057D01*
X203211000Y-92414750D01*
X203211000Y-93102250D01*
X203209345Y-93135943D01*
X203204395Y-93169312D01*
X203196198Y-93202035D01*
X203184834Y-93233797D01*
X203170410Y-93264293D01*
X203153068Y-93293227D01*
X203132972Y-93320323D01*
X203110318Y-93345318D01*
X203085323Y-93367972D01*
X203058227Y-93388068D01*
X203029293Y-93405410D01*
X202998797Y-93419834D01*
X202967035Y-93431198D01*
X202934312Y-93439395D01*
X202900943Y-93444345D01*
X202867250Y-93446000D01*
X201754750Y-93446000D01*
X201721057Y-93444345D01*
X201687688Y-93439395D01*
X201654965Y-93431198D01*
X201623203Y-93419834D01*
X201592707Y-93405410D01*
X201563773Y-93388068D01*
X201536677Y-93367972D01*
X201511682Y-93345318D01*
X201489028Y-93320323D01*
X201468932Y-93293227D01*
X201451590Y-93264293D01*
X201437166Y-93233797D01*
X201425802Y-93202035D01*
X201417605Y-93169312D01*
X201412655Y-93135943D01*
X201411000Y-93102250D01*
X201411000Y-92414750D01*
X201412655Y-92381057D01*
X201417605Y-92347688D01*
X201425802Y-92314965D01*
X201437166Y-92283203D01*
X201451590Y-92252707D01*
X201468932Y-92223773D01*
X201489028Y-92196677D01*
X201511682Y-92171682D01*
X201536677Y-92149028D01*
X201563773Y-92128932D01*
X201592707Y-92111590D01*
X201623203Y-92097166D01*
X201654965Y-92085802D01*
X201687688Y-92077605D01*
X201721057Y-92072655D01*
X201754750Y-92071000D01*
X202867250Y-92071000D01*
X202900943Y-92072655D01*
X202900943Y-92072655D01*
G37*
D14*
X202311000Y-92758500D03*
D13*
G36*
X202900943Y-90197655D02*
X202934312Y-90202605D01*
X202967035Y-90210802D01*
X202998797Y-90222166D01*
X203029293Y-90236590D01*
X203058227Y-90253932D01*
X203085323Y-90274028D01*
X203110318Y-90296682D01*
X203132972Y-90321677D01*
X203153068Y-90348773D01*
X203170410Y-90377707D01*
X203184834Y-90408203D01*
X203196198Y-90439965D01*
X203204395Y-90472688D01*
X203209345Y-90506057D01*
X203211000Y-90539750D01*
X203211000Y-91227250D01*
X203209345Y-91260943D01*
X203204395Y-91294312D01*
X203196198Y-91327035D01*
X203184834Y-91358797D01*
X203170410Y-91389293D01*
X203153068Y-91418227D01*
X203132972Y-91445323D01*
X203110318Y-91470318D01*
X203085323Y-91492972D01*
X203058227Y-91513068D01*
X203029293Y-91530410D01*
X202998797Y-91544834D01*
X202967035Y-91556198D01*
X202934312Y-91564395D01*
X202900943Y-91569345D01*
X202867250Y-91571000D01*
X201754750Y-91571000D01*
X201721057Y-91569345D01*
X201687688Y-91564395D01*
X201654965Y-91556198D01*
X201623203Y-91544834D01*
X201592707Y-91530410D01*
X201563773Y-91513068D01*
X201536677Y-91492972D01*
X201511682Y-91470318D01*
X201489028Y-91445323D01*
X201468932Y-91418227D01*
X201451590Y-91389293D01*
X201437166Y-91358797D01*
X201425802Y-91327035D01*
X201417605Y-91294312D01*
X201412655Y-91260943D01*
X201411000Y-91227250D01*
X201411000Y-90539750D01*
X201412655Y-90506057D01*
X201417605Y-90472688D01*
X201425802Y-90439965D01*
X201437166Y-90408203D01*
X201451590Y-90377707D01*
X201468932Y-90348773D01*
X201489028Y-90321677D01*
X201511682Y-90296682D01*
X201536677Y-90274028D01*
X201563773Y-90253932D01*
X201592707Y-90236590D01*
X201623203Y-90222166D01*
X201654965Y-90210802D01*
X201687688Y-90202605D01*
X201721057Y-90197655D01*
X201754750Y-90196000D01*
X202867250Y-90196000D01*
X202900943Y-90197655D01*
X202900943Y-90197655D01*
G37*
D14*
X202311000Y-90883500D03*
G04 #@! TD*
D13*
G04 #@! TO.C,C2*
G36*
X194384943Y-85969655D02*
X194418312Y-85974605D01*
X194451035Y-85982802D01*
X194482797Y-85994166D01*
X194513293Y-86008590D01*
X194542227Y-86025932D01*
X194569323Y-86046028D01*
X194594318Y-86068682D01*
X194616972Y-86093677D01*
X194637068Y-86120773D01*
X194654410Y-86149707D01*
X194668834Y-86180203D01*
X194680198Y-86211965D01*
X194688395Y-86244688D01*
X194693345Y-86278057D01*
X194695000Y-86311750D01*
X194695000Y-87424250D01*
X194693345Y-87457943D01*
X194688395Y-87491312D01*
X194680198Y-87524035D01*
X194668834Y-87555797D01*
X194654410Y-87586293D01*
X194637068Y-87615227D01*
X194616972Y-87642323D01*
X194594318Y-87667318D01*
X194569323Y-87689972D01*
X194542227Y-87710068D01*
X194513293Y-87727410D01*
X194482797Y-87741834D01*
X194451035Y-87753198D01*
X194418312Y-87761395D01*
X194384943Y-87766345D01*
X194351250Y-87768000D01*
X193663750Y-87768000D01*
X193630057Y-87766345D01*
X193596688Y-87761395D01*
X193563965Y-87753198D01*
X193532203Y-87741834D01*
X193501707Y-87727410D01*
X193472773Y-87710068D01*
X193445677Y-87689972D01*
X193420682Y-87667318D01*
X193398028Y-87642323D01*
X193377932Y-87615227D01*
X193360590Y-87586293D01*
X193346166Y-87555797D01*
X193334802Y-87524035D01*
X193326605Y-87491312D01*
X193321655Y-87457943D01*
X193320000Y-87424250D01*
X193320000Y-86311750D01*
X193321655Y-86278057D01*
X193326605Y-86244688D01*
X193334802Y-86211965D01*
X193346166Y-86180203D01*
X193360590Y-86149707D01*
X193377932Y-86120773D01*
X193398028Y-86093677D01*
X193420682Y-86068682D01*
X193445677Y-86046028D01*
X193472773Y-86025932D01*
X193501707Y-86008590D01*
X193532203Y-85994166D01*
X193563965Y-85982802D01*
X193596688Y-85974605D01*
X193630057Y-85969655D01*
X193663750Y-85968000D01*
X194351250Y-85968000D01*
X194384943Y-85969655D01*
X194384943Y-85969655D01*
G37*
D14*
X194007500Y-86868000D03*
D13*
G36*
X196259943Y-85969655D02*
X196293312Y-85974605D01*
X196326035Y-85982802D01*
X196357797Y-85994166D01*
X196388293Y-86008590D01*
X196417227Y-86025932D01*
X196444323Y-86046028D01*
X196469318Y-86068682D01*
X196491972Y-86093677D01*
X196512068Y-86120773D01*
X196529410Y-86149707D01*
X196543834Y-86180203D01*
X196555198Y-86211965D01*
X196563395Y-86244688D01*
X196568345Y-86278057D01*
X196570000Y-86311750D01*
X196570000Y-87424250D01*
X196568345Y-87457943D01*
X196563395Y-87491312D01*
X196555198Y-87524035D01*
X196543834Y-87555797D01*
X196529410Y-87586293D01*
X196512068Y-87615227D01*
X196491972Y-87642323D01*
X196469318Y-87667318D01*
X196444323Y-87689972D01*
X196417227Y-87710068D01*
X196388293Y-87727410D01*
X196357797Y-87741834D01*
X196326035Y-87753198D01*
X196293312Y-87761395D01*
X196259943Y-87766345D01*
X196226250Y-87768000D01*
X195538750Y-87768000D01*
X195505057Y-87766345D01*
X195471688Y-87761395D01*
X195438965Y-87753198D01*
X195407203Y-87741834D01*
X195376707Y-87727410D01*
X195347773Y-87710068D01*
X195320677Y-87689972D01*
X195295682Y-87667318D01*
X195273028Y-87642323D01*
X195252932Y-87615227D01*
X195235590Y-87586293D01*
X195221166Y-87555797D01*
X195209802Y-87524035D01*
X195201605Y-87491312D01*
X195196655Y-87457943D01*
X195195000Y-87424250D01*
X195195000Y-86311750D01*
X195196655Y-86278057D01*
X195201605Y-86244688D01*
X195209802Y-86211965D01*
X195221166Y-86180203D01*
X195235590Y-86149707D01*
X195252932Y-86120773D01*
X195273028Y-86093677D01*
X195295682Y-86068682D01*
X195320677Y-86046028D01*
X195347773Y-86025932D01*
X195376707Y-86008590D01*
X195407203Y-85994166D01*
X195438965Y-85982802D01*
X195471688Y-85974605D01*
X195505057Y-85969655D01*
X195538750Y-85968000D01*
X196226250Y-85968000D01*
X196259943Y-85969655D01*
X196259943Y-85969655D01*
G37*
D14*
X195882500Y-86868000D03*
G04 #@! TD*
D15*
G04 #@! TO.C,U1*
X187588000Y-85385000D03*
X187588000Y-86035000D03*
X187588000Y-86685000D03*
X187588000Y-87335000D03*
X191888000Y-87335000D03*
X191888000Y-86685000D03*
X191888000Y-86035000D03*
X191888000Y-85385000D03*
G04 #@! TD*
D13*
G04 #@! TO.C,R3*
G36*
X191470943Y-90802655D02*
X191504312Y-90807605D01*
X191537035Y-90815802D01*
X191568797Y-90827166D01*
X191599293Y-90841590D01*
X191628227Y-90858932D01*
X191655323Y-90879028D01*
X191680318Y-90901682D01*
X191702972Y-90926677D01*
X191723068Y-90953773D01*
X191740410Y-90982707D01*
X191754834Y-91013203D01*
X191766198Y-91044965D01*
X191774395Y-91077688D01*
X191779345Y-91111057D01*
X191781000Y-91144750D01*
X191781000Y-91832250D01*
X191779345Y-91865943D01*
X191774395Y-91899312D01*
X191766198Y-91932035D01*
X191754834Y-91963797D01*
X191740410Y-91994293D01*
X191723068Y-92023227D01*
X191702972Y-92050323D01*
X191680318Y-92075318D01*
X191655323Y-92097972D01*
X191628227Y-92118068D01*
X191599293Y-92135410D01*
X191568797Y-92149834D01*
X191537035Y-92161198D01*
X191504312Y-92169395D01*
X191470943Y-92174345D01*
X191437250Y-92176000D01*
X190324750Y-92176000D01*
X190291057Y-92174345D01*
X190257688Y-92169395D01*
X190224965Y-92161198D01*
X190193203Y-92149834D01*
X190162707Y-92135410D01*
X190133773Y-92118068D01*
X190106677Y-92097972D01*
X190081682Y-92075318D01*
X190059028Y-92050323D01*
X190038932Y-92023227D01*
X190021590Y-91994293D01*
X190007166Y-91963797D01*
X189995802Y-91932035D01*
X189987605Y-91899312D01*
X189982655Y-91865943D01*
X189981000Y-91832250D01*
X189981000Y-91144750D01*
X189982655Y-91111057D01*
X189987605Y-91077688D01*
X189995802Y-91044965D01*
X190007166Y-91013203D01*
X190021590Y-90982707D01*
X190038932Y-90953773D01*
X190059028Y-90926677D01*
X190081682Y-90901682D01*
X190106677Y-90879028D01*
X190133773Y-90858932D01*
X190162707Y-90841590D01*
X190193203Y-90827166D01*
X190224965Y-90815802D01*
X190257688Y-90807605D01*
X190291057Y-90802655D01*
X190324750Y-90801000D01*
X191437250Y-90801000D01*
X191470943Y-90802655D01*
X191470943Y-90802655D01*
G37*
D14*
X190881000Y-91488500D03*
D13*
G36*
X191470943Y-88927655D02*
X191504312Y-88932605D01*
X191537035Y-88940802D01*
X191568797Y-88952166D01*
X191599293Y-88966590D01*
X191628227Y-88983932D01*
X191655323Y-89004028D01*
X191680318Y-89026682D01*
X191702972Y-89051677D01*
X191723068Y-89078773D01*
X191740410Y-89107707D01*
X191754834Y-89138203D01*
X191766198Y-89169965D01*
X191774395Y-89202688D01*
X191779345Y-89236057D01*
X191781000Y-89269750D01*
X191781000Y-89957250D01*
X191779345Y-89990943D01*
X191774395Y-90024312D01*
X191766198Y-90057035D01*
X191754834Y-90088797D01*
X191740410Y-90119293D01*
X191723068Y-90148227D01*
X191702972Y-90175323D01*
X191680318Y-90200318D01*
X191655323Y-90222972D01*
X191628227Y-90243068D01*
X191599293Y-90260410D01*
X191568797Y-90274834D01*
X191537035Y-90286198D01*
X191504312Y-90294395D01*
X191470943Y-90299345D01*
X191437250Y-90301000D01*
X190324750Y-90301000D01*
X190291057Y-90299345D01*
X190257688Y-90294395D01*
X190224965Y-90286198D01*
X190193203Y-90274834D01*
X190162707Y-90260410D01*
X190133773Y-90243068D01*
X190106677Y-90222972D01*
X190081682Y-90200318D01*
X190059028Y-90175323D01*
X190038932Y-90148227D01*
X190021590Y-90119293D01*
X190007166Y-90088797D01*
X189995802Y-90057035D01*
X189987605Y-90024312D01*
X189982655Y-89990943D01*
X189981000Y-89957250D01*
X189981000Y-89269750D01*
X189982655Y-89236057D01*
X189987605Y-89202688D01*
X189995802Y-89169965D01*
X190007166Y-89138203D01*
X190021590Y-89107707D01*
X190038932Y-89078773D01*
X190059028Y-89051677D01*
X190081682Y-89026682D01*
X190106677Y-89004028D01*
X190133773Y-88983932D01*
X190162707Y-88966590D01*
X190193203Y-88952166D01*
X190224965Y-88940802D01*
X190257688Y-88932605D01*
X190291057Y-88927655D01*
X190324750Y-88926000D01*
X191437250Y-88926000D01*
X191470943Y-88927655D01*
X191470943Y-88927655D01*
G37*
D14*
X190881000Y-89613500D03*
G04 #@! TD*
D10*
G04 #@! TO.C,J4*
X205105000Y-81280000D03*
D11*
X205105000Y-83820000D03*
X205105000Y-86360000D03*
X205105000Y-88900000D03*
X205105000Y-91440000D03*
G04 #@! TD*
D10*
G04 #@! TO.C,J1*
X182880000Y-81280000D03*
D11*
X182880000Y-83820000D03*
X182880000Y-86360000D03*
X182880000Y-88900000D03*
X182880000Y-91440000D03*
G04 #@! TD*
D13*
G04 #@! TO.C,C1*
G36*
X186263943Y-86611655D02*
X186297312Y-86616605D01*
X186330035Y-86624802D01*
X186361797Y-86636166D01*
X186392293Y-86650590D01*
X186421227Y-86667932D01*
X186448323Y-86688028D01*
X186473318Y-86710682D01*
X186495972Y-86735677D01*
X186516068Y-86762773D01*
X186533410Y-86791707D01*
X186547834Y-86822203D01*
X186559198Y-86853965D01*
X186567395Y-86886688D01*
X186572345Y-86920057D01*
X186574000Y-86953750D01*
X186574000Y-87641250D01*
X186572345Y-87674943D01*
X186567395Y-87708312D01*
X186559198Y-87741035D01*
X186547834Y-87772797D01*
X186533410Y-87803293D01*
X186516068Y-87832227D01*
X186495972Y-87859323D01*
X186473318Y-87884318D01*
X186448323Y-87906972D01*
X186421227Y-87927068D01*
X186392293Y-87944410D01*
X186361797Y-87958834D01*
X186330035Y-87970198D01*
X186297312Y-87978395D01*
X186263943Y-87983345D01*
X186230250Y-87985000D01*
X185117750Y-87985000D01*
X185084057Y-87983345D01*
X185050688Y-87978395D01*
X185017965Y-87970198D01*
X184986203Y-87958834D01*
X184955707Y-87944410D01*
X184926773Y-87927068D01*
X184899677Y-87906972D01*
X184874682Y-87884318D01*
X184852028Y-87859323D01*
X184831932Y-87832227D01*
X184814590Y-87803293D01*
X184800166Y-87772797D01*
X184788802Y-87741035D01*
X184780605Y-87708312D01*
X184775655Y-87674943D01*
X184774000Y-87641250D01*
X184774000Y-86953750D01*
X184775655Y-86920057D01*
X184780605Y-86886688D01*
X184788802Y-86853965D01*
X184800166Y-86822203D01*
X184814590Y-86791707D01*
X184831932Y-86762773D01*
X184852028Y-86735677D01*
X184874682Y-86710682D01*
X184899677Y-86688028D01*
X184926773Y-86667932D01*
X184955707Y-86650590D01*
X184986203Y-86636166D01*
X185017965Y-86624802D01*
X185050688Y-86616605D01*
X185084057Y-86611655D01*
X185117750Y-86610000D01*
X186230250Y-86610000D01*
X186263943Y-86611655D01*
X186263943Y-86611655D01*
G37*
D14*
X185674000Y-87297500D03*
D13*
G36*
X186263943Y-84736655D02*
X186297312Y-84741605D01*
X186330035Y-84749802D01*
X186361797Y-84761166D01*
X186392293Y-84775590D01*
X186421227Y-84792932D01*
X186448323Y-84813028D01*
X186473318Y-84835682D01*
X186495972Y-84860677D01*
X186516068Y-84887773D01*
X186533410Y-84916707D01*
X186547834Y-84947203D01*
X186559198Y-84978965D01*
X186567395Y-85011688D01*
X186572345Y-85045057D01*
X186574000Y-85078750D01*
X186574000Y-85766250D01*
X186572345Y-85799943D01*
X186567395Y-85833312D01*
X186559198Y-85866035D01*
X186547834Y-85897797D01*
X186533410Y-85928293D01*
X186516068Y-85957227D01*
X186495972Y-85984323D01*
X186473318Y-86009318D01*
X186448323Y-86031972D01*
X186421227Y-86052068D01*
X186392293Y-86069410D01*
X186361797Y-86083834D01*
X186330035Y-86095198D01*
X186297312Y-86103395D01*
X186263943Y-86108345D01*
X186230250Y-86110000D01*
X185117750Y-86110000D01*
X185084057Y-86108345D01*
X185050688Y-86103395D01*
X185017965Y-86095198D01*
X184986203Y-86083834D01*
X184955707Y-86069410D01*
X184926773Y-86052068D01*
X184899677Y-86031972D01*
X184874682Y-86009318D01*
X184852028Y-85984323D01*
X184831932Y-85957227D01*
X184814590Y-85928293D01*
X184800166Y-85897797D01*
X184788802Y-85866035D01*
X184780605Y-85833312D01*
X184775655Y-85799943D01*
X184774000Y-85766250D01*
X184774000Y-85078750D01*
X184775655Y-85045057D01*
X184780605Y-85011688D01*
X184788802Y-84978965D01*
X184800166Y-84947203D01*
X184814590Y-84916707D01*
X184831932Y-84887773D01*
X184852028Y-84860677D01*
X184874682Y-84835682D01*
X184899677Y-84813028D01*
X184926773Y-84792932D01*
X184955707Y-84775590D01*
X184986203Y-84761166D01*
X185017965Y-84749802D01*
X185050688Y-84741605D01*
X185084057Y-84736655D01*
X185117750Y-84735000D01*
X186230250Y-84735000D01*
X186263943Y-84736655D01*
X186263943Y-84736655D01*
G37*
D14*
X185674000Y-85422500D03*
G04 #@! TD*
D13*
G04 #@! TO.C,R2*
G36*
X188930943Y-88927655D02*
X188964312Y-88932605D01*
X188997035Y-88940802D01*
X189028797Y-88952166D01*
X189059293Y-88966590D01*
X189088227Y-88983932D01*
X189115323Y-89004028D01*
X189140318Y-89026682D01*
X189162972Y-89051677D01*
X189183068Y-89078773D01*
X189200410Y-89107707D01*
X189214834Y-89138203D01*
X189226198Y-89169965D01*
X189234395Y-89202688D01*
X189239345Y-89236057D01*
X189241000Y-89269750D01*
X189241000Y-89957250D01*
X189239345Y-89990943D01*
X189234395Y-90024312D01*
X189226198Y-90057035D01*
X189214834Y-90088797D01*
X189200410Y-90119293D01*
X189183068Y-90148227D01*
X189162972Y-90175323D01*
X189140318Y-90200318D01*
X189115323Y-90222972D01*
X189088227Y-90243068D01*
X189059293Y-90260410D01*
X189028797Y-90274834D01*
X188997035Y-90286198D01*
X188964312Y-90294395D01*
X188930943Y-90299345D01*
X188897250Y-90301000D01*
X187784750Y-90301000D01*
X187751057Y-90299345D01*
X187717688Y-90294395D01*
X187684965Y-90286198D01*
X187653203Y-90274834D01*
X187622707Y-90260410D01*
X187593773Y-90243068D01*
X187566677Y-90222972D01*
X187541682Y-90200318D01*
X187519028Y-90175323D01*
X187498932Y-90148227D01*
X187481590Y-90119293D01*
X187467166Y-90088797D01*
X187455802Y-90057035D01*
X187447605Y-90024312D01*
X187442655Y-89990943D01*
X187441000Y-89957250D01*
X187441000Y-89269750D01*
X187442655Y-89236057D01*
X187447605Y-89202688D01*
X187455802Y-89169965D01*
X187467166Y-89138203D01*
X187481590Y-89107707D01*
X187498932Y-89078773D01*
X187519028Y-89051677D01*
X187541682Y-89026682D01*
X187566677Y-89004028D01*
X187593773Y-88983932D01*
X187622707Y-88966590D01*
X187653203Y-88952166D01*
X187684965Y-88940802D01*
X187717688Y-88932605D01*
X187751057Y-88927655D01*
X187784750Y-88926000D01*
X188897250Y-88926000D01*
X188930943Y-88927655D01*
X188930943Y-88927655D01*
G37*
D14*
X188341000Y-89613500D03*
D13*
G36*
X188930943Y-90802655D02*
X188964312Y-90807605D01*
X188997035Y-90815802D01*
X189028797Y-90827166D01*
X189059293Y-90841590D01*
X189088227Y-90858932D01*
X189115323Y-90879028D01*
X189140318Y-90901682D01*
X189162972Y-90926677D01*
X189183068Y-90953773D01*
X189200410Y-90982707D01*
X189214834Y-91013203D01*
X189226198Y-91044965D01*
X189234395Y-91077688D01*
X189239345Y-91111057D01*
X189241000Y-91144750D01*
X189241000Y-91832250D01*
X189239345Y-91865943D01*
X189234395Y-91899312D01*
X189226198Y-91932035D01*
X189214834Y-91963797D01*
X189200410Y-91994293D01*
X189183068Y-92023227D01*
X189162972Y-92050323D01*
X189140318Y-92075318D01*
X189115323Y-92097972D01*
X189088227Y-92118068D01*
X189059293Y-92135410D01*
X189028797Y-92149834D01*
X188997035Y-92161198D01*
X188964312Y-92169395D01*
X188930943Y-92174345D01*
X188897250Y-92176000D01*
X187784750Y-92176000D01*
X187751057Y-92174345D01*
X187717688Y-92169395D01*
X187684965Y-92161198D01*
X187653203Y-92149834D01*
X187622707Y-92135410D01*
X187593773Y-92118068D01*
X187566677Y-92097972D01*
X187541682Y-92075318D01*
X187519028Y-92050323D01*
X187498932Y-92023227D01*
X187481590Y-91994293D01*
X187467166Y-91963797D01*
X187455802Y-91932035D01*
X187447605Y-91899312D01*
X187442655Y-91865943D01*
X187441000Y-91832250D01*
X187441000Y-91144750D01*
X187442655Y-91111057D01*
X187447605Y-91077688D01*
X187455802Y-91044965D01*
X187467166Y-91013203D01*
X187481590Y-90982707D01*
X187498932Y-90953773D01*
X187519028Y-90926677D01*
X187541682Y-90901682D01*
X187566677Y-90879028D01*
X187593773Y-90858932D01*
X187622707Y-90841590D01*
X187653203Y-90827166D01*
X187684965Y-90815802D01*
X187717688Y-90807605D01*
X187751057Y-90802655D01*
X187784750Y-90801000D01*
X188897250Y-90801000D01*
X188930943Y-90802655D01*
X188930943Y-90802655D01*
G37*
D14*
X188341000Y-91488500D03*
G04 #@! TD*
D13*
G04 #@! TO.C,R1*
G36*
X186771943Y-90802655D02*
X186805312Y-90807605D01*
X186838035Y-90815802D01*
X186869797Y-90827166D01*
X186900293Y-90841590D01*
X186929227Y-90858932D01*
X186956323Y-90879028D01*
X186981318Y-90901682D01*
X187003972Y-90926677D01*
X187024068Y-90953773D01*
X187041410Y-90982707D01*
X187055834Y-91013203D01*
X187067198Y-91044965D01*
X187075395Y-91077688D01*
X187080345Y-91111057D01*
X187082000Y-91144750D01*
X187082000Y-91832250D01*
X187080345Y-91865943D01*
X187075395Y-91899312D01*
X187067198Y-91932035D01*
X187055834Y-91963797D01*
X187041410Y-91994293D01*
X187024068Y-92023227D01*
X187003972Y-92050323D01*
X186981318Y-92075318D01*
X186956323Y-92097972D01*
X186929227Y-92118068D01*
X186900293Y-92135410D01*
X186869797Y-92149834D01*
X186838035Y-92161198D01*
X186805312Y-92169395D01*
X186771943Y-92174345D01*
X186738250Y-92176000D01*
X185625750Y-92176000D01*
X185592057Y-92174345D01*
X185558688Y-92169395D01*
X185525965Y-92161198D01*
X185494203Y-92149834D01*
X185463707Y-92135410D01*
X185434773Y-92118068D01*
X185407677Y-92097972D01*
X185382682Y-92075318D01*
X185360028Y-92050323D01*
X185339932Y-92023227D01*
X185322590Y-91994293D01*
X185308166Y-91963797D01*
X185296802Y-91932035D01*
X185288605Y-91899312D01*
X185283655Y-91865943D01*
X185282000Y-91832250D01*
X185282000Y-91144750D01*
X185283655Y-91111057D01*
X185288605Y-91077688D01*
X185296802Y-91044965D01*
X185308166Y-91013203D01*
X185322590Y-90982707D01*
X185339932Y-90953773D01*
X185360028Y-90926677D01*
X185382682Y-90901682D01*
X185407677Y-90879028D01*
X185434773Y-90858932D01*
X185463707Y-90841590D01*
X185494203Y-90827166D01*
X185525965Y-90815802D01*
X185558688Y-90807605D01*
X185592057Y-90802655D01*
X185625750Y-90801000D01*
X186738250Y-90801000D01*
X186771943Y-90802655D01*
X186771943Y-90802655D01*
G37*
D14*
X186182000Y-91488500D03*
D13*
G36*
X186771943Y-88927655D02*
X186805312Y-88932605D01*
X186838035Y-88940802D01*
X186869797Y-88952166D01*
X186900293Y-88966590D01*
X186929227Y-88983932D01*
X186956323Y-89004028D01*
X186981318Y-89026682D01*
X187003972Y-89051677D01*
X187024068Y-89078773D01*
X187041410Y-89107707D01*
X187055834Y-89138203D01*
X187067198Y-89169965D01*
X187075395Y-89202688D01*
X187080345Y-89236057D01*
X187082000Y-89269750D01*
X187082000Y-89957250D01*
X187080345Y-89990943D01*
X187075395Y-90024312D01*
X187067198Y-90057035D01*
X187055834Y-90088797D01*
X187041410Y-90119293D01*
X187024068Y-90148227D01*
X187003972Y-90175323D01*
X186981318Y-90200318D01*
X186956323Y-90222972D01*
X186929227Y-90243068D01*
X186900293Y-90260410D01*
X186869797Y-90274834D01*
X186838035Y-90286198D01*
X186805312Y-90294395D01*
X186771943Y-90299345D01*
X186738250Y-90301000D01*
X185625750Y-90301000D01*
X185592057Y-90299345D01*
X185558688Y-90294395D01*
X185525965Y-90286198D01*
X185494203Y-90274834D01*
X185463707Y-90260410D01*
X185434773Y-90243068D01*
X185407677Y-90222972D01*
X185382682Y-90200318D01*
X185360028Y-90175323D01*
X185339932Y-90148227D01*
X185322590Y-90119293D01*
X185308166Y-90088797D01*
X185296802Y-90057035D01*
X185288605Y-90024312D01*
X185283655Y-89990943D01*
X185282000Y-89957250D01*
X185282000Y-89269750D01*
X185283655Y-89236057D01*
X185288605Y-89202688D01*
X185296802Y-89169965D01*
X185308166Y-89138203D01*
X185322590Y-89107707D01*
X185339932Y-89078773D01*
X185360028Y-89051677D01*
X185382682Y-89026682D01*
X185407677Y-89004028D01*
X185434773Y-88983932D01*
X185463707Y-88966590D01*
X185494203Y-88952166D01*
X185525965Y-88940802D01*
X185558688Y-88932605D01*
X185592057Y-88927655D01*
X185625750Y-88926000D01*
X186738250Y-88926000D01*
X186771943Y-88927655D01*
X186771943Y-88927655D01*
G37*
D14*
X186182000Y-89613500D03*
G04 #@! TD*
D16*
G04 #@! TO.C,REF\002A\002A*
X180162200Y-92913200D03*
G04 #@! TD*
M02*
