G04 #@! TF.GenerationSoftware,KiCad,Pcbnew,5.0.0*
G04 #@! TF.CreationDate,2018-11-11T13:40:21-05:00*
G04 #@! TF.ProjectId,Pi-I2C-Level-Shifter,50692D4932432D4C6576656C2D536869,rev?*
G04 #@! TF.SameCoordinates,Original*
G04 #@! TF.FileFunction,Copper,L2,Bot,Signal*
G04 #@! TF.FilePolarity,Positive*
%FSLAX46Y46*%
G04 Gerber Fmt 4.6, Leading zero omitted, Abs format (unit mm)*
G04 Created by KiCad (PCBNEW 5.0.0) date Sun Nov 11 13:40:21 2018*
%MOMM*%
%LPD*%
G01*
G04 APERTURE LIST*
G04 #@! TA.AperFunction,SMDPad,CuDef*
%ADD10C,0.500000*%
G04 #@! TD*
G04 #@! TA.AperFunction,Conductor*
%ADD11C,0.100000*%
G04 #@! TD*
G04 #@! TA.AperFunction,SMDPad,CuDef*
%ADD12R,1.000000X1.500000*%
G04 #@! TD*
G04 #@! TA.AperFunction,ComponentPad*
%ADD13R,1.700000X1.700000*%
G04 #@! TD*
G04 #@! TA.AperFunction,ComponentPad*
%ADD14O,1.700000X1.700000*%
G04 #@! TD*
G04 #@! TA.AperFunction,ViaPad*
%ADD15C,0.800000*%
G04 #@! TD*
G04 #@! TA.AperFunction,Conductor*
%ADD16C,0.130000*%
G04 #@! TD*
G04 #@! TA.AperFunction,Conductor*
%ADD17C,0.500000*%
G04 #@! TD*
G04 #@! TA.AperFunction,Conductor*
%ADD18C,0.250000*%
G04 #@! TD*
G04 APERTURE END LIST*
D10*
G04 #@! TO.P,JP1,2*
G04 #@! TO.N,Net-(JP1-Pad2)*
X194975000Y-91694000D03*
D11*
G04 #@! TD*
G04 #@! TO.N,Net-(JP1-Pad2)*
G04 #@! TO.C,JP1*
G36*
X194975000Y-90944602D02*
X194999534Y-90944602D01*
X195048365Y-90949412D01*
X195096490Y-90958984D01*
X195143445Y-90973228D01*
X195188778Y-90992005D01*
X195232051Y-91015136D01*
X195272850Y-91042396D01*
X195310779Y-91073524D01*
X195345476Y-91108221D01*
X195376604Y-91146150D01*
X195403864Y-91186949D01*
X195426995Y-91230222D01*
X195445772Y-91275555D01*
X195460016Y-91322510D01*
X195469588Y-91370635D01*
X195474398Y-91419466D01*
X195474398Y-91444000D01*
X195475000Y-91444000D01*
X195475000Y-91944000D01*
X195474398Y-91944000D01*
X195474398Y-91968534D01*
X195469588Y-92017365D01*
X195460016Y-92065490D01*
X195445772Y-92112445D01*
X195426995Y-92157778D01*
X195403864Y-92201051D01*
X195376604Y-92241850D01*
X195345476Y-92279779D01*
X195310779Y-92314476D01*
X195272850Y-92345604D01*
X195232051Y-92372864D01*
X195188778Y-92395995D01*
X195143445Y-92414772D01*
X195096490Y-92429016D01*
X195048365Y-92438588D01*
X194999534Y-92443398D01*
X194975000Y-92443398D01*
X194975000Y-92444000D01*
X194475000Y-92444000D01*
X194475000Y-90944000D01*
X194975000Y-90944000D01*
X194975000Y-90944602D01*
X194975000Y-90944602D01*
G37*
D10*
G04 #@! TO.P,JP1,1*
G04 #@! TO.N,OE*
X193675000Y-91694000D03*
D11*
G04 #@! TD*
G04 #@! TO.N,OE*
G04 #@! TO.C,JP1*
G36*
X194175000Y-92444000D02*
X193675000Y-92444000D01*
X193675000Y-92443398D01*
X193650466Y-92443398D01*
X193601635Y-92438588D01*
X193553510Y-92429016D01*
X193506555Y-92414772D01*
X193461222Y-92395995D01*
X193417949Y-92372864D01*
X193377150Y-92345604D01*
X193339221Y-92314476D01*
X193304524Y-92279779D01*
X193273396Y-92241850D01*
X193246136Y-92201051D01*
X193223005Y-92157778D01*
X193204228Y-92112445D01*
X193189984Y-92065490D01*
X193180412Y-92017365D01*
X193175602Y-91968534D01*
X193175602Y-91944000D01*
X193175000Y-91944000D01*
X193175000Y-91444000D01*
X193175602Y-91444000D01*
X193175602Y-91419466D01*
X193180412Y-91370635D01*
X193189984Y-91322510D01*
X193204228Y-91275555D01*
X193223005Y-91230222D01*
X193246136Y-91186949D01*
X193273396Y-91146150D01*
X193304524Y-91108221D01*
X193339221Y-91073524D01*
X193377150Y-91042396D01*
X193417949Y-91015136D01*
X193461222Y-90992005D01*
X193506555Y-90973228D01*
X193553510Y-90958984D01*
X193601635Y-90949412D01*
X193650466Y-90944602D01*
X193675000Y-90944602D01*
X193675000Y-90944000D01*
X194175000Y-90944000D01*
X194175000Y-92444000D01*
X194175000Y-92444000D01*
G37*
D10*
G04 #@! TO.P,JP4,1*
G04 #@! TO.N,Earth*
X199614000Y-86661729D03*
D11*
G04 #@! TD*
G04 #@! TO.N,Earth*
G04 #@! TO.C,JP4*
G36*
X200164000Y-87411729D02*
X199614000Y-87411729D01*
X199614000Y-87411127D01*
X199589466Y-87411127D01*
X199540635Y-87406317D01*
X199492510Y-87396745D01*
X199445555Y-87382501D01*
X199400222Y-87363724D01*
X199356949Y-87340593D01*
X199316150Y-87313333D01*
X199278221Y-87282205D01*
X199243524Y-87247508D01*
X199212396Y-87209579D01*
X199185136Y-87168780D01*
X199162005Y-87125507D01*
X199143228Y-87080174D01*
X199128984Y-87033219D01*
X199119412Y-86985094D01*
X199114602Y-86936263D01*
X199114602Y-86911729D01*
X199114000Y-86911729D01*
X199114000Y-86411729D01*
X199114602Y-86411729D01*
X199114602Y-86387195D01*
X199119412Y-86338364D01*
X199128984Y-86290239D01*
X199143228Y-86243284D01*
X199162005Y-86197951D01*
X199185136Y-86154678D01*
X199212396Y-86113879D01*
X199243524Y-86075950D01*
X199278221Y-86041253D01*
X199316150Y-86010125D01*
X199356949Y-85982865D01*
X199400222Y-85959734D01*
X199445555Y-85940957D01*
X199492510Y-85926713D01*
X199540635Y-85917141D01*
X199589466Y-85912331D01*
X199614000Y-85912331D01*
X199614000Y-85911729D01*
X200164000Y-85911729D01*
X200164000Y-87411729D01*
X200164000Y-87411729D01*
G37*
D10*
G04 #@! TO.P,JP4,3*
G04 #@! TO.N,Vccb*
X202214000Y-86661729D03*
D11*
G04 #@! TD*
G04 #@! TO.N,Vccb*
G04 #@! TO.C,JP4*
G36*
X202214000Y-85912331D02*
X202238534Y-85912331D01*
X202287365Y-85917141D01*
X202335490Y-85926713D01*
X202382445Y-85940957D01*
X202427778Y-85959734D01*
X202471051Y-85982865D01*
X202511850Y-86010125D01*
X202549779Y-86041253D01*
X202584476Y-86075950D01*
X202615604Y-86113879D01*
X202642864Y-86154678D01*
X202665995Y-86197951D01*
X202684772Y-86243284D01*
X202699016Y-86290239D01*
X202708588Y-86338364D01*
X202713398Y-86387195D01*
X202713398Y-86411729D01*
X202714000Y-86411729D01*
X202714000Y-86911729D01*
X202713398Y-86911729D01*
X202713398Y-86936263D01*
X202708588Y-86985094D01*
X202699016Y-87033219D01*
X202684772Y-87080174D01*
X202665995Y-87125507D01*
X202642864Y-87168780D01*
X202615604Y-87209579D01*
X202584476Y-87247508D01*
X202549779Y-87282205D01*
X202511850Y-87313333D01*
X202471051Y-87340593D01*
X202427778Y-87363724D01*
X202382445Y-87382501D01*
X202335490Y-87396745D01*
X202287365Y-87406317D01*
X202238534Y-87411127D01*
X202214000Y-87411127D01*
X202214000Y-87411729D01*
X201664000Y-87411729D01*
X201664000Y-85911729D01*
X202214000Y-85911729D01*
X202214000Y-85912331D01*
X202214000Y-85912331D01*
G37*
D12*
G04 #@! TO.P,JP4,2*
G04 #@! TO.N,A0*
X200914000Y-86661729D03*
G04 #@! TD*
G04 #@! TO.P,JP3,2*
G04 #@! TO.N,A1*
X200914000Y-89408000D03*
D10*
G04 #@! TO.P,JP3,3*
G04 #@! TO.N,Vccb*
X202214000Y-89408000D03*
D11*
G04 #@! TD*
G04 #@! TO.N,Vccb*
G04 #@! TO.C,JP3*
G36*
X202214000Y-88658602D02*
X202238534Y-88658602D01*
X202287365Y-88663412D01*
X202335490Y-88672984D01*
X202382445Y-88687228D01*
X202427778Y-88706005D01*
X202471051Y-88729136D01*
X202511850Y-88756396D01*
X202549779Y-88787524D01*
X202584476Y-88822221D01*
X202615604Y-88860150D01*
X202642864Y-88900949D01*
X202665995Y-88944222D01*
X202684772Y-88989555D01*
X202699016Y-89036510D01*
X202708588Y-89084635D01*
X202713398Y-89133466D01*
X202713398Y-89158000D01*
X202714000Y-89158000D01*
X202714000Y-89658000D01*
X202713398Y-89658000D01*
X202713398Y-89682534D01*
X202708588Y-89731365D01*
X202699016Y-89779490D01*
X202684772Y-89826445D01*
X202665995Y-89871778D01*
X202642864Y-89915051D01*
X202615604Y-89955850D01*
X202584476Y-89993779D01*
X202549779Y-90028476D01*
X202511850Y-90059604D01*
X202471051Y-90086864D01*
X202427778Y-90109995D01*
X202382445Y-90128772D01*
X202335490Y-90143016D01*
X202287365Y-90152588D01*
X202238534Y-90157398D01*
X202214000Y-90157398D01*
X202214000Y-90158000D01*
X201664000Y-90158000D01*
X201664000Y-88658000D01*
X202214000Y-88658000D01*
X202214000Y-88658602D01*
X202214000Y-88658602D01*
G37*
D10*
G04 #@! TO.P,JP3,1*
G04 #@! TO.N,Earth*
X199614000Y-89408000D03*
D11*
G04 #@! TD*
G04 #@! TO.N,Earth*
G04 #@! TO.C,JP3*
G36*
X200164000Y-90158000D02*
X199614000Y-90158000D01*
X199614000Y-90157398D01*
X199589466Y-90157398D01*
X199540635Y-90152588D01*
X199492510Y-90143016D01*
X199445555Y-90128772D01*
X199400222Y-90109995D01*
X199356949Y-90086864D01*
X199316150Y-90059604D01*
X199278221Y-90028476D01*
X199243524Y-89993779D01*
X199212396Y-89955850D01*
X199185136Y-89915051D01*
X199162005Y-89871778D01*
X199143228Y-89826445D01*
X199128984Y-89779490D01*
X199119412Y-89731365D01*
X199114602Y-89682534D01*
X199114602Y-89658000D01*
X199114000Y-89658000D01*
X199114000Y-89158000D01*
X199114602Y-89158000D01*
X199114602Y-89133466D01*
X199119412Y-89084635D01*
X199128984Y-89036510D01*
X199143228Y-88989555D01*
X199162005Y-88944222D01*
X199185136Y-88900949D01*
X199212396Y-88860150D01*
X199243524Y-88822221D01*
X199278221Y-88787524D01*
X199316150Y-88756396D01*
X199356949Y-88729136D01*
X199400222Y-88706005D01*
X199445555Y-88687228D01*
X199492510Y-88672984D01*
X199540635Y-88663412D01*
X199589466Y-88658602D01*
X199614000Y-88658602D01*
X199614000Y-88658000D01*
X200164000Y-88658000D01*
X200164000Y-90158000D01*
X200164000Y-90158000D01*
G37*
D10*
G04 #@! TO.P,JP2,1*
G04 #@! TO.N,Earth*
X199614000Y-92202000D03*
D11*
G04 #@! TD*
G04 #@! TO.N,Earth*
G04 #@! TO.C,JP2*
G36*
X200164000Y-92952000D02*
X199614000Y-92952000D01*
X199614000Y-92951398D01*
X199589466Y-92951398D01*
X199540635Y-92946588D01*
X199492510Y-92937016D01*
X199445555Y-92922772D01*
X199400222Y-92903995D01*
X199356949Y-92880864D01*
X199316150Y-92853604D01*
X199278221Y-92822476D01*
X199243524Y-92787779D01*
X199212396Y-92749850D01*
X199185136Y-92709051D01*
X199162005Y-92665778D01*
X199143228Y-92620445D01*
X199128984Y-92573490D01*
X199119412Y-92525365D01*
X199114602Y-92476534D01*
X199114602Y-92452000D01*
X199114000Y-92452000D01*
X199114000Y-91952000D01*
X199114602Y-91952000D01*
X199114602Y-91927466D01*
X199119412Y-91878635D01*
X199128984Y-91830510D01*
X199143228Y-91783555D01*
X199162005Y-91738222D01*
X199185136Y-91694949D01*
X199212396Y-91654150D01*
X199243524Y-91616221D01*
X199278221Y-91581524D01*
X199316150Y-91550396D01*
X199356949Y-91523136D01*
X199400222Y-91500005D01*
X199445555Y-91481228D01*
X199492510Y-91466984D01*
X199540635Y-91457412D01*
X199589466Y-91452602D01*
X199614000Y-91452602D01*
X199614000Y-91452000D01*
X200164000Y-91452000D01*
X200164000Y-92952000D01*
X200164000Y-92952000D01*
G37*
D10*
G04 #@! TO.P,JP2,3*
G04 #@! TO.N,Vccb*
X202214000Y-92202000D03*
D11*
G04 #@! TD*
G04 #@! TO.N,Vccb*
G04 #@! TO.C,JP2*
G36*
X202214000Y-91452602D02*
X202238534Y-91452602D01*
X202287365Y-91457412D01*
X202335490Y-91466984D01*
X202382445Y-91481228D01*
X202427778Y-91500005D01*
X202471051Y-91523136D01*
X202511850Y-91550396D01*
X202549779Y-91581524D01*
X202584476Y-91616221D01*
X202615604Y-91654150D01*
X202642864Y-91694949D01*
X202665995Y-91738222D01*
X202684772Y-91783555D01*
X202699016Y-91830510D01*
X202708588Y-91878635D01*
X202713398Y-91927466D01*
X202713398Y-91952000D01*
X202714000Y-91952000D01*
X202714000Y-92452000D01*
X202713398Y-92452000D01*
X202713398Y-92476534D01*
X202708588Y-92525365D01*
X202699016Y-92573490D01*
X202684772Y-92620445D01*
X202665995Y-92665778D01*
X202642864Y-92709051D01*
X202615604Y-92749850D01*
X202584476Y-92787779D01*
X202549779Y-92822476D01*
X202511850Y-92853604D01*
X202471051Y-92880864D01*
X202427778Y-92903995D01*
X202382445Y-92922772D01*
X202335490Y-92937016D01*
X202287365Y-92946588D01*
X202238534Y-92951398D01*
X202214000Y-92951398D01*
X202214000Y-92952000D01*
X201664000Y-92952000D01*
X201664000Y-91452000D01*
X202214000Y-91452000D01*
X202214000Y-91452602D01*
X202214000Y-91452602D01*
G37*
D12*
G04 #@! TO.P,JP2,2*
G04 #@! TO.N,A2*
X200914000Y-92202000D03*
G04 #@! TD*
D13*
G04 #@! TO.P,J2,1*
G04 #@! TO.N,P0*
X187198000Y-83185000D03*
D14*
G04 #@! TO.P,J2,2*
G04 #@! TO.N,P1*
X187198000Y-80645000D03*
G04 #@! TO.P,J2,3*
G04 #@! TO.N,P2*
X189738000Y-83185000D03*
G04 #@! TO.P,J2,4*
G04 #@! TO.N,P3*
X189738000Y-80645000D03*
G04 #@! TO.P,J2,5*
G04 #@! TO.N,P4*
X192278000Y-83185000D03*
G04 #@! TO.P,J2,6*
G04 #@! TO.N,P5*
X192278000Y-80645000D03*
G04 #@! TO.P,J2,7*
G04 #@! TO.N,P6*
X194818000Y-83185000D03*
G04 #@! TO.P,J2,8*
G04 #@! TO.N,P7*
X194818000Y-80645000D03*
G04 #@! TO.P,J2,9*
G04 #@! TO.N,SDAb*
X197358000Y-83185000D03*
G04 #@! TO.P,J2,10*
G04 #@! TO.N,Vccb*
X197358000Y-80645000D03*
G04 #@! TO.P,J2,11*
G04 #@! TO.N,SCLb*
X199898000Y-83185000D03*
G04 #@! TO.P,J2,12*
G04 #@! TO.N,Earth*
X199898000Y-80645000D03*
G04 #@! TD*
D13*
G04 #@! TO.P,J4,1*
G04 #@! TO.N,Earth*
X205105000Y-81280000D03*
D14*
G04 #@! TO.P,J4,2*
G04 #@! TO.N,Net-(J4-Pad2)*
X205105000Y-83820000D03*
G04 #@! TO.P,J4,3*
G04 #@! TO.N,SCLb*
X205105000Y-86360000D03*
G04 #@! TO.P,J4,4*
G04 #@! TO.N,SDAb*
X205105000Y-88900000D03*
G04 #@! TO.P,J4,5*
G04 #@! TO.N,Vccb*
X205105000Y-91440000D03*
G04 #@! TD*
D13*
G04 #@! TO.P,J1,1*
G04 #@! TO.N,Earth*
X182880000Y-81280000D03*
D14*
G04 #@! TO.P,J1,2*
G04 #@! TO.N,OE*
X182880000Y-83820000D03*
G04 #@! TO.P,J1,3*
G04 #@! TO.N,SCLa*
X182880000Y-86360000D03*
G04 #@! TO.P,J1,4*
G04 #@! TO.N,SDAa*
X182880000Y-88900000D03*
G04 #@! TO.P,J1,5*
G04 #@! TO.N,Vcca*
X182880000Y-91440000D03*
G04 #@! TD*
D15*
G04 #@! TO.N,Earth*
X193294000Y-85344000D03*
G04 #@! TO.N,A1*
X203073000Y-87884000D03*
G04 #@! TO.N,Earth*
X198882000Y-85979000D03*
G04 #@! TO.N,Net-(JP1-Pad2)*
X198374000Y-89662000D03*
G04 #@! TO.N,P7*
X197358000Y-89662000D03*
G04 #@! TO.N,P6*
X197358000Y-90678000D03*
G04 #@! TO.N,P4*
X196215000Y-91948000D03*
G04 #@! TO.N,P5*
X197358000Y-91694000D03*
G04 #@! TO.N,Vccb*
X203200000Y-84582000D03*
X200152000Y-85090000D03*
X197104000Y-85090000D03*
G04 #@! TO.N,A0*
X197485000Y-88138000D03*
G04 #@! TO.N,Earth*
X195326000Y-93472000D03*
X184785000Y-86233000D03*
X196215000Y-85598000D03*
X201803000Y-79502000D03*
X196088000Y-79502000D03*
G04 #@! TO.N,OE*
X190119000Y-88519000D03*
X188722000Y-84709000D03*
X189103000Y-86106000D03*
G04 #@! TO.N,Vcca*
X184785000Y-90551000D03*
X188595000Y-88265000D03*
G04 #@! TO.N,Vccb*
X203073000Y-89408000D03*
G04 #@! TO.N,A2*
X192532000Y-90297000D03*
G04 #@! TD*
D16*
G04 #@! TO.N,Net-(JP1-Pad2)*
X198501000Y-91535202D02*
X198501000Y-90227685D01*
X198501000Y-90227685D02*
X198501000Y-89662000D01*
D17*
G04 #@! TO.N,Vccb*
X202692000Y-85090000D02*
X203200000Y-84582000D01*
X200152000Y-85090000D02*
X202692000Y-85090000D01*
D16*
G04 #@! TO.N,P5*
X197358000Y-91694000D02*
X196958001Y-91294001D01*
G04 #@! TO.N,P6*
X194818000Y-88392000D02*
X194818000Y-86106000D01*
X197358000Y-90678000D02*
X196342000Y-90678000D01*
X194818000Y-89154000D02*
X194818000Y-88392000D01*
X196342000Y-90678000D02*
X194818000Y-89154000D01*
X194818000Y-86106000D02*
X194818000Y-83185000D01*
D17*
G04 #@! TO.N,Vccb*
X200152000Y-85090000D02*
X197104000Y-85090000D01*
D16*
X204803271Y-91741729D02*
X205105000Y-91440000D01*
G04 #@! TO.N,Earth*
X199614000Y-92202000D02*
X199614000Y-89408000D01*
X199564729Y-86661729D02*
X198882000Y-85979000D01*
X199614000Y-86661729D02*
X199564729Y-86661729D01*
D18*
X200154008Y-90483010D02*
X202552328Y-90483010D01*
X196919998Y-85979000D02*
X196759999Y-86138999D01*
X198882000Y-85979000D02*
X196919998Y-85979000D01*
X196759999Y-86138999D02*
X196759999Y-88486001D01*
X196759999Y-88486001D02*
X197136999Y-88863001D01*
X199623997Y-89952999D02*
X200154008Y-90483010D01*
X197136999Y-88863001D02*
X199623997Y-88863001D01*
X199623997Y-88863001D02*
X199623997Y-89952999D01*
X199014000Y-86661729D02*
X199614000Y-86661729D01*
X196713044Y-86661729D02*
X199014000Y-86661729D01*
X196215000Y-86163685D02*
X196713044Y-86661729D01*
X196215000Y-85598000D02*
X196215000Y-86163685D01*
D17*
X196653685Y-79502000D02*
X196890675Y-79265010D01*
X196088000Y-79502000D02*
X196653685Y-79502000D01*
X201237315Y-79502000D02*
X201803000Y-79502000D01*
X201000325Y-79265010D02*
X201237315Y-79502000D01*
X196890675Y-79265010D02*
X201000325Y-79265010D01*
D18*
G04 #@! TO.N,Vcca*
X183769000Y-90551000D02*
X182880000Y-91440000D01*
X184785000Y-90551000D02*
X183769000Y-90551000D01*
X187071000Y-88265000D02*
X188595000Y-88265000D01*
X184785000Y-90551000D02*
X187071000Y-88265000D01*
D16*
G04 #@! TO.N,OE*
X188722000Y-85725000D02*
X188976000Y-85979000D01*
X188722000Y-84709000D02*
X188722000Y-85725000D01*
X193675000Y-89789000D02*
X193675000Y-91694000D01*
X190119000Y-88519000D02*
X192405000Y-88519000D01*
X192405000Y-88519000D02*
X193675000Y-89789000D01*
G04 #@! TO.N,Vccb*
X204343000Y-92202000D02*
X205105000Y-91440000D01*
X202214000Y-92202000D02*
X204343000Y-92202000D01*
X203200000Y-85675729D02*
X203200000Y-84582000D01*
D18*
X205105000Y-91440000D02*
X206280001Y-90264999D01*
X206280001Y-90264999D02*
X206280001Y-88335999D01*
X205479003Y-87535001D02*
X203797003Y-87535001D01*
X203797003Y-87535001D02*
X202923731Y-86661729D01*
X203599999Y-84981999D02*
X203200000Y-84582000D01*
X203613001Y-84995001D02*
X203599999Y-84981999D01*
X206280001Y-85795999D02*
X205479003Y-84995001D01*
X206280001Y-86924001D02*
X206280001Y-85795999D01*
X205574002Y-87630000D02*
X206280001Y-86924001D01*
X205479003Y-84995001D02*
X203613001Y-84995001D01*
X206280001Y-88335999D02*
X205574002Y-87630000D01*
X205574002Y-87630000D02*
X205479003Y-87535001D01*
X203073000Y-89408000D02*
X203073000Y-89408000D01*
X202214000Y-89408000D02*
X203073000Y-89408000D01*
X203073000Y-89408000D02*
X205105000Y-91440000D01*
X203073000Y-89408000D02*
X203073000Y-89408000D01*
X198207999Y-81494999D02*
X197358000Y-80645000D01*
X198533001Y-81820001D02*
X198207999Y-81494999D01*
X198533001Y-83749001D02*
X198533001Y-81820001D01*
X197592001Y-84690001D02*
X198533001Y-83749001D01*
X197503999Y-84690001D02*
X197592001Y-84690001D01*
X197104000Y-85090000D02*
X197503999Y-84690001D01*
D16*
X203200000Y-85675729D02*
X202214000Y-86661729D01*
D18*
X202923731Y-86661729D02*
X202214000Y-86661729D01*
D16*
G04 #@! TO.N,Net-(JP1-Pad2)*
X197423201Y-92613001D02*
X198501000Y-91535202D01*
X195894001Y-92613001D02*
X197423201Y-92613001D01*
X194975000Y-91694000D02*
X195894001Y-92613001D01*
G04 #@! TO.N,A0*
X200914000Y-87541729D02*
X200914000Y-86661729D01*
X200778990Y-87676739D02*
X200914000Y-87541729D01*
X197946261Y-87676739D02*
X200778990Y-87676739D01*
X197485000Y-88138000D02*
X197946261Y-87676739D01*
G04 #@! TO.N,A1*
X201558000Y-87884000D02*
X202507315Y-87884000D01*
X202507315Y-87884000D02*
X203073000Y-87884000D01*
X200914000Y-88528000D02*
X201558000Y-87884000D01*
X200914000Y-89408000D02*
X200914000Y-88528000D01*
G04 #@! TO.N,A2*
X195524296Y-92710000D02*
X193362516Y-92710000D01*
X200914000Y-93082000D02*
X200778000Y-93218000D01*
X200914000Y-92202000D02*
X200914000Y-93082000D01*
X197358000Y-93218000D02*
X197104000Y-92964000D01*
X197104000Y-92964000D02*
X195778296Y-92964000D01*
X200778000Y-93218000D02*
X197358000Y-93218000D01*
X195778296Y-92964000D02*
X195524296Y-92710000D01*
X192532000Y-91879484D02*
X192532000Y-90297000D01*
X193362516Y-92710000D02*
X192532000Y-91879484D01*
G04 #@! TO.N,P4*
X195815001Y-91084409D02*
X194056000Y-89325408D01*
X196215000Y-91948000D02*
X195815001Y-91548001D01*
X195815001Y-91548001D02*
X195815001Y-91084409D01*
X194056000Y-84963000D02*
X192278000Y-83185000D01*
X194056000Y-89325408D02*
X194056000Y-84963000D01*
G04 #@! TO.N,P5*
X196491297Y-91294001D02*
X194437000Y-89239704D01*
X196958001Y-91294001D02*
X196491297Y-91294001D01*
X194437000Y-89239704D02*
X194437000Y-84455000D01*
X193127999Y-81494999D02*
X192278000Y-80645000D01*
X193393001Y-83411001D02*
X193393001Y-81760001D01*
X193393001Y-81760001D02*
X193127999Y-81494999D01*
X194437000Y-84455000D02*
X193393001Y-83411001D01*
G04 #@! TO.N,P7*
X195667999Y-81494999D02*
X194818000Y-80645000D01*
X197358000Y-89662000D02*
X195792704Y-89662000D01*
X195148010Y-89017306D02*
X195148010Y-84505192D01*
X195148010Y-84505192D02*
X195933001Y-83720201D01*
X195792704Y-89662000D02*
X195148010Y-89017306D01*
X195933001Y-83720201D02*
X195933001Y-81760001D01*
X195933001Y-81760001D02*
X195667999Y-81494999D01*
G04 #@! TD*
D18*
G04 #@! TO.N,Earth*
G36*
X199768998Y-79326545D02*
X199539475Y-79205990D01*
X199396630Y-79249317D01*
X199133979Y-79373947D01*
X198900689Y-79547423D01*
X198705725Y-79763078D01*
X198556580Y-80012625D01*
X198497003Y-80179796D01*
X198495228Y-80173945D01*
X198381478Y-79961134D01*
X198228397Y-79774603D01*
X198041866Y-79621522D01*
X197829055Y-79507772D01*
X197598142Y-79437725D01*
X197418178Y-79420000D01*
X197297822Y-79420000D01*
X197117858Y-79437725D01*
X196886945Y-79507772D01*
X196674134Y-79621522D01*
X196487603Y-79774603D01*
X196334522Y-79961134D01*
X196220772Y-80173945D01*
X196150725Y-80404858D01*
X196127073Y-80645000D01*
X196150725Y-80885142D01*
X196220772Y-81116055D01*
X196334522Y-81328866D01*
X196487603Y-81515397D01*
X196674134Y-81668478D01*
X196886945Y-81782228D01*
X197117858Y-81852275D01*
X197297822Y-81870000D01*
X197418178Y-81870000D01*
X197598142Y-81852275D01*
X197797649Y-81791755D01*
X197871812Y-81865918D01*
X197871817Y-81865922D01*
X198033002Y-82027107D01*
X198033002Y-82156784D01*
X197829055Y-82047772D01*
X197598142Y-81977725D01*
X197418178Y-81960000D01*
X197297822Y-81960000D01*
X197117858Y-81977725D01*
X196886945Y-82047772D01*
X196674134Y-82161522D01*
X196487603Y-82314603D01*
X196373001Y-82454247D01*
X196373001Y-81781604D01*
X196375129Y-81760000D01*
X196373001Y-81738394D01*
X196366634Y-81673746D01*
X196341474Y-81590806D01*
X196314783Y-81540871D01*
X196300617Y-81514367D01*
X196275542Y-81483814D01*
X196245633Y-81447369D01*
X196228843Y-81433590D01*
X195994409Y-81199156D01*
X195994404Y-81199150D01*
X195939930Y-81144676D01*
X195955228Y-81116055D01*
X196025275Y-80885142D01*
X196048927Y-80645000D01*
X196025275Y-80404858D01*
X195955228Y-80173945D01*
X195841478Y-79961134D01*
X195688397Y-79774603D01*
X195501866Y-79621522D01*
X195289055Y-79507772D01*
X195058142Y-79437725D01*
X194878178Y-79420000D01*
X194757822Y-79420000D01*
X194577858Y-79437725D01*
X194346945Y-79507772D01*
X194134134Y-79621522D01*
X193947603Y-79774603D01*
X193794522Y-79961134D01*
X193680772Y-80173945D01*
X193610725Y-80404858D01*
X193587073Y-80645000D01*
X193610725Y-80885142D01*
X193680772Y-81116055D01*
X193794522Y-81328866D01*
X193947603Y-81515397D01*
X194134134Y-81668478D01*
X194346945Y-81782228D01*
X194577858Y-81852275D01*
X194757822Y-81870000D01*
X194878178Y-81870000D01*
X195058142Y-81852275D01*
X195289055Y-81782228D01*
X195317676Y-81766930D01*
X195372150Y-81821404D01*
X195372156Y-81821409D01*
X195493002Y-81942255D01*
X195493002Y-82156784D01*
X195289055Y-82047772D01*
X195058142Y-81977725D01*
X194878178Y-81960000D01*
X194757822Y-81960000D01*
X194577858Y-81977725D01*
X194346945Y-82047772D01*
X194134134Y-82161522D01*
X193947603Y-82314603D01*
X193833001Y-82454247D01*
X193833001Y-81781604D01*
X193835129Y-81760000D01*
X193833001Y-81738394D01*
X193826634Y-81673746D01*
X193801474Y-81590806D01*
X193774783Y-81540871D01*
X193760617Y-81514367D01*
X193735542Y-81483814D01*
X193705633Y-81447369D01*
X193688843Y-81433590D01*
X193454409Y-81199156D01*
X193454404Y-81199150D01*
X193399930Y-81144676D01*
X193415228Y-81116055D01*
X193485275Y-80885142D01*
X193508927Y-80645000D01*
X193485275Y-80404858D01*
X193415228Y-80173945D01*
X193301478Y-79961134D01*
X193148397Y-79774603D01*
X192961866Y-79621522D01*
X192749055Y-79507772D01*
X192518142Y-79437725D01*
X192338178Y-79420000D01*
X192217822Y-79420000D01*
X192037858Y-79437725D01*
X191806945Y-79507772D01*
X191594134Y-79621522D01*
X191407603Y-79774603D01*
X191254522Y-79961134D01*
X191140772Y-80173945D01*
X191070725Y-80404858D01*
X191047073Y-80645000D01*
X191070725Y-80885142D01*
X191140772Y-81116055D01*
X191254522Y-81328866D01*
X191407603Y-81515397D01*
X191594134Y-81668478D01*
X191806945Y-81782228D01*
X192037858Y-81852275D01*
X192217822Y-81870000D01*
X192338178Y-81870000D01*
X192518142Y-81852275D01*
X192749055Y-81782228D01*
X192777676Y-81766930D01*
X192832150Y-81821404D01*
X192832156Y-81821409D01*
X192953002Y-81942255D01*
X192953002Y-82156784D01*
X192749055Y-82047772D01*
X192518142Y-81977725D01*
X192338178Y-81960000D01*
X192217822Y-81960000D01*
X192037858Y-81977725D01*
X191806945Y-82047772D01*
X191594134Y-82161522D01*
X191407603Y-82314603D01*
X191254522Y-82501134D01*
X191140772Y-82713945D01*
X191070725Y-82944858D01*
X191047073Y-83185000D01*
X191070725Y-83425142D01*
X191140772Y-83656055D01*
X191254522Y-83868866D01*
X191407603Y-84055397D01*
X191594134Y-84208478D01*
X191806945Y-84322228D01*
X192037858Y-84392275D01*
X192217822Y-84410000D01*
X192338178Y-84410000D01*
X192518142Y-84392275D01*
X192749055Y-84322228D01*
X192777676Y-84306930D01*
X193616001Y-85145255D01*
X193616000Y-89107746D01*
X192731411Y-88223158D01*
X192717632Y-88206368D01*
X192650633Y-88151384D01*
X192574195Y-88110527D01*
X192491255Y-88085367D01*
X192426607Y-88079000D01*
X192426604Y-88079000D01*
X192405000Y-88076872D01*
X192383396Y-88079000D01*
X190757086Y-88079000D01*
X190720982Y-88024966D01*
X190613034Y-87917018D01*
X190486100Y-87832204D01*
X190345059Y-87773783D01*
X190195331Y-87744000D01*
X190042669Y-87744000D01*
X189892941Y-87773783D01*
X189751900Y-87832204D01*
X189624966Y-87917018D01*
X189517018Y-88024966D01*
X189432204Y-88151900D01*
X189373783Y-88292941D01*
X189370000Y-88311959D01*
X189370000Y-88188669D01*
X189340217Y-88038941D01*
X189281796Y-87897900D01*
X189196982Y-87770966D01*
X189089034Y-87663018D01*
X188962100Y-87578204D01*
X188821059Y-87519783D01*
X188671331Y-87490000D01*
X188518669Y-87490000D01*
X188368941Y-87519783D01*
X188227900Y-87578204D01*
X188100966Y-87663018D01*
X187998984Y-87765000D01*
X187095557Y-87765000D01*
X187070999Y-87762581D01*
X187046441Y-87765000D01*
X187046440Y-87765000D01*
X186972983Y-87772235D01*
X186878733Y-87800825D01*
X186791871Y-87847254D01*
X186715736Y-87909736D01*
X186700075Y-87928819D01*
X184852895Y-89776000D01*
X184708669Y-89776000D01*
X184558941Y-89805783D01*
X184417900Y-89864204D01*
X184290966Y-89949018D01*
X184188984Y-90051000D01*
X183793560Y-90051000D01*
X183769000Y-90048581D01*
X183744440Y-90051000D01*
X183670983Y-90058235D01*
X183576733Y-90086825D01*
X183489871Y-90133254D01*
X183413736Y-90195736D01*
X183398080Y-90214813D01*
X183319648Y-90293245D01*
X183120142Y-90232725D01*
X182940178Y-90215000D01*
X182819822Y-90215000D01*
X182639858Y-90232725D01*
X182408945Y-90302772D01*
X182196134Y-90416522D01*
X182009603Y-90569603D01*
X181856522Y-90756134D01*
X181742772Y-90968945D01*
X181672725Y-91199858D01*
X181649073Y-91440000D01*
X181672725Y-91680142D01*
X181742772Y-91911055D01*
X181856522Y-92123866D01*
X182009603Y-92310397D01*
X182196134Y-92463478D01*
X182408945Y-92577228D01*
X182639858Y-92647275D01*
X182819822Y-92665000D01*
X182940178Y-92665000D01*
X183120142Y-92647275D01*
X183351055Y-92577228D01*
X183563866Y-92463478D01*
X183750397Y-92310397D01*
X183903478Y-92123866D01*
X184017228Y-91911055D01*
X184087275Y-91680142D01*
X184110927Y-91440000D01*
X184087275Y-91199858D01*
X184042119Y-91051000D01*
X184188984Y-91051000D01*
X184290966Y-91152982D01*
X184417900Y-91237796D01*
X184558941Y-91296217D01*
X184708669Y-91326000D01*
X184861331Y-91326000D01*
X185011059Y-91296217D01*
X185152100Y-91237796D01*
X185279034Y-91152982D01*
X185386982Y-91045034D01*
X185471796Y-90918100D01*
X185530217Y-90777059D01*
X185560000Y-90627331D01*
X185560000Y-90483105D01*
X187278106Y-88765000D01*
X187998984Y-88765000D01*
X188100966Y-88866982D01*
X188227900Y-88951796D01*
X188368941Y-89010217D01*
X188518669Y-89040000D01*
X188671331Y-89040000D01*
X188821059Y-89010217D01*
X188962100Y-88951796D01*
X189089034Y-88866982D01*
X189196982Y-88759034D01*
X189281796Y-88632100D01*
X189340217Y-88491059D01*
X189344000Y-88472041D01*
X189344000Y-88595331D01*
X189373783Y-88745059D01*
X189432204Y-88886100D01*
X189517018Y-89013034D01*
X189624966Y-89120982D01*
X189751900Y-89205796D01*
X189892941Y-89264217D01*
X190042669Y-89294000D01*
X190195331Y-89294000D01*
X190345059Y-89264217D01*
X190486100Y-89205796D01*
X190613034Y-89120982D01*
X190720982Y-89013034D01*
X190757086Y-88959000D01*
X192222747Y-88959000D01*
X192856167Y-89592421D01*
X192758059Y-89551783D01*
X192608331Y-89522000D01*
X192455669Y-89522000D01*
X192305941Y-89551783D01*
X192164900Y-89610204D01*
X192037966Y-89695018D01*
X191930018Y-89802966D01*
X191845204Y-89929900D01*
X191786783Y-90070941D01*
X191757000Y-90220669D01*
X191757000Y-90373331D01*
X191786783Y-90523059D01*
X191845204Y-90664100D01*
X191930018Y-90791034D01*
X192037966Y-90898982D01*
X192092001Y-90935087D01*
X192092000Y-91857879D01*
X192089872Y-91879484D01*
X192092000Y-91901088D01*
X192092000Y-91901090D01*
X192098367Y-91965738D01*
X192123527Y-92048678D01*
X192142546Y-92084260D01*
X192164384Y-92125117D01*
X192173421Y-92136128D01*
X192219368Y-92192116D01*
X192236158Y-92205895D01*
X193036109Y-93005847D01*
X193049884Y-93022632D01*
X193066667Y-93036405D01*
X193116882Y-93077616D01*
X193151651Y-93096200D01*
X193193321Y-93118473D01*
X193276261Y-93143633D01*
X193340909Y-93150000D01*
X193340911Y-93150000D01*
X193362516Y-93152128D01*
X193384120Y-93150000D01*
X195342043Y-93150000D01*
X195451885Y-93259842D01*
X195465664Y-93276632D01*
X195509916Y-93312948D01*
X195532662Y-93331616D01*
X195573519Y-93353454D01*
X195609101Y-93372473D01*
X195692041Y-93397633D01*
X195756689Y-93404000D01*
X195756691Y-93404000D01*
X195778295Y-93406128D01*
X195799899Y-93404000D01*
X196921747Y-93404000D01*
X197031589Y-93513842D01*
X197044849Y-93530000D01*
X179520000Y-93530000D01*
X179520000Y-88900000D01*
X181649073Y-88900000D01*
X181672725Y-89140142D01*
X181742772Y-89371055D01*
X181856522Y-89583866D01*
X182009603Y-89770397D01*
X182196134Y-89923478D01*
X182408945Y-90037228D01*
X182639858Y-90107275D01*
X182819822Y-90125000D01*
X182940178Y-90125000D01*
X183120142Y-90107275D01*
X183351055Y-90037228D01*
X183563866Y-89923478D01*
X183750397Y-89770397D01*
X183903478Y-89583866D01*
X184017228Y-89371055D01*
X184087275Y-89140142D01*
X184110927Y-88900000D01*
X184087275Y-88659858D01*
X184017228Y-88428945D01*
X183903478Y-88216134D01*
X183750397Y-88029603D01*
X183563866Y-87876522D01*
X183351055Y-87762772D01*
X183120142Y-87692725D01*
X182940178Y-87675000D01*
X182819822Y-87675000D01*
X182639858Y-87692725D01*
X182408945Y-87762772D01*
X182196134Y-87876522D01*
X182009603Y-88029603D01*
X181856522Y-88216134D01*
X181742772Y-88428945D01*
X181672725Y-88659858D01*
X181649073Y-88900000D01*
X179520000Y-88900000D01*
X179520000Y-86360000D01*
X181649073Y-86360000D01*
X181672725Y-86600142D01*
X181742772Y-86831055D01*
X181856522Y-87043866D01*
X182009603Y-87230397D01*
X182196134Y-87383478D01*
X182408945Y-87497228D01*
X182639858Y-87567275D01*
X182819822Y-87585000D01*
X182940178Y-87585000D01*
X183120142Y-87567275D01*
X183351055Y-87497228D01*
X183563866Y-87383478D01*
X183750397Y-87230397D01*
X183903478Y-87043866D01*
X184017228Y-86831055D01*
X184087275Y-86600142D01*
X184110927Y-86360000D01*
X184087275Y-86119858D01*
X184017228Y-85888945D01*
X183903478Y-85676134D01*
X183750397Y-85489603D01*
X183563866Y-85336522D01*
X183351055Y-85222772D01*
X183120142Y-85152725D01*
X182940178Y-85135000D01*
X182819822Y-85135000D01*
X182639858Y-85152725D01*
X182408945Y-85222772D01*
X182196134Y-85336522D01*
X182009603Y-85489603D01*
X181856522Y-85676134D01*
X181742772Y-85888945D01*
X181672725Y-86119858D01*
X181649073Y-86360000D01*
X179520000Y-86360000D01*
X179520000Y-81567250D01*
X181397000Y-81567250D01*
X181397000Y-82192345D01*
X181421326Y-82314639D01*
X181469043Y-82429838D01*
X181538317Y-82533514D01*
X181626486Y-82621683D01*
X181730162Y-82690957D01*
X181845361Y-82738674D01*
X181967655Y-82763000D01*
X182258849Y-82763000D01*
X182196134Y-82796522D01*
X182009603Y-82949603D01*
X181856522Y-83136134D01*
X181742772Y-83348945D01*
X181672725Y-83579858D01*
X181649073Y-83820000D01*
X181672725Y-84060142D01*
X181742772Y-84291055D01*
X181856522Y-84503866D01*
X182009603Y-84690397D01*
X182196134Y-84843478D01*
X182408945Y-84957228D01*
X182639858Y-85027275D01*
X182819822Y-85045000D01*
X182940178Y-85045000D01*
X183120142Y-85027275D01*
X183351055Y-84957228D01*
X183563866Y-84843478D01*
X183750397Y-84690397D01*
X183903478Y-84503866D01*
X184017228Y-84291055D01*
X184087275Y-84060142D01*
X184110927Y-83820000D01*
X184087275Y-83579858D01*
X184017228Y-83348945D01*
X183903478Y-83136134D01*
X183750397Y-82949603D01*
X183563866Y-82796522D01*
X183501151Y-82763000D01*
X183792345Y-82763000D01*
X183914639Y-82738674D01*
X184029838Y-82690957D01*
X184133514Y-82621683D01*
X184221683Y-82533514D01*
X184290957Y-82429838D01*
X184330240Y-82335000D01*
X185971186Y-82335000D01*
X185971186Y-84035000D01*
X185978426Y-84108513D01*
X185999869Y-84179200D01*
X186034691Y-84244347D01*
X186081552Y-84301448D01*
X186138653Y-84348309D01*
X186203800Y-84383131D01*
X186274487Y-84404574D01*
X186348000Y-84411814D01*
X188006245Y-84411814D01*
X187976783Y-84482941D01*
X187947000Y-84632669D01*
X187947000Y-84785331D01*
X187976783Y-84935059D01*
X188035204Y-85076100D01*
X188120018Y-85203034D01*
X188227966Y-85310982D01*
X188282001Y-85347087D01*
X188282001Y-85703386D01*
X188279872Y-85725000D01*
X188288368Y-85811255D01*
X188313528Y-85894195D01*
X188343714Y-85950670D01*
X188328000Y-86029669D01*
X188328000Y-86182331D01*
X188357783Y-86332059D01*
X188416204Y-86473100D01*
X188501018Y-86600034D01*
X188608966Y-86707982D01*
X188735900Y-86792796D01*
X188876941Y-86851217D01*
X189026669Y-86881000D01*
X189179331Y-86881000D01*
X189329059Y-86851217D01*
X189470100Y-86792796D01*
X189597034Y-86707982D01*
X189704982Y-86600034D01*
X189789796Y-86473100D01*
X189848217Y-86332059D01*
X189878000Y-86182331D01*
X189878000Y-86029669D01*
X189848217Y-85879941D01*
X189789796Y-85738900D01*
X189704982Y-85611966D01*
X189597034Y-85504018D01*
X189470100Y-85419204D01*
X189329059Y-85360783D01*
X189184528Y-85332034D01*
X189216034Y-85310982D01*
X189323982Y-85203034D01*
X189408796Y-85076100D01*
X189467217Y-84935059D01*
X189497000Y-84785331D01*
X189497000Y-84632669D01*
X189467217Y-84482941D01*
X189419862Y-84368615D01*
X189497858Y-84392275D01*
X189677822Y-84410000D01*
X189798178Y-84410000D01*
X189978142Y-84392275D01*
X190209055Y-84322228D01*
X190421866Y-84208478D01*
X190608397Y-84055397D01*
X190761478Y-83868866D01*
X190875228Y-83656055D01*
X190945275Y-83425142D01*
X190968927Y-83185000D01*
X190945275Y-82944858D01*
X190875228Y-82713945D01*
X190761478Y-82501134D01*
X190608397Y-82314603D01*
X190421866Y-82161522D01*
X190209055Y-82047772D01*
X189978142Y-81977725D01*
X189798178Y-81960000D01*
X189677822Y-81960000D01*
X189497858Y-81977725D01*
X189266945Y-82047772D01*
X189054134Y-82161522D01*
X188867603Y-82314603D01*
X188714522Y-82501134D01*
X188600772Y-82713945D01*
X188530725Y-82944858D01*
X188507073Y-83185000D01*
X188530725Y-83425142D01*
X188600772Y-83656055D01*
X188714522Y-83868866D01*
X188767976Y-83934000D01*
X188645669Y-83934000D01*
X188495941Y-83963783D01*
X188424814Y-83993245D01*
X188424814Y-82335000D01*
X188417574Y-82261487D01*
X188396131Y-82190800D01*
X188361309Y-82125653D01*
X188314448Y-82068552D01*
X188257347Y-82021691D01*
X188192200Y-81986869D01*
X188121513Y-81965426D01*
X188048000Y-81958186D01*
X186348000Y-81958186D01*
X186274487Y-81965426D01*
X186203800Y-81986869D01*
X186138653Y-82021691D01*
X186081552Y-82068552D01*
X186034691Y-82125653D01*
X185999869Y-82190800D01*
X185978426Y-82261487D01*
X185971186Y-82335000D01*
X184330240Y-82335000D01*
X184338674Y-82314639D01*
X184363000Y-82192345D01*
X184363000Y-81567250D01*
X184204750Y-81409000D01*
X183009000Y-81409000D01*
X183009000Y-81429000D01*
X182751000Y-81429000D01*
X182751000Y-81409000D01*
X181555250Y-81409000D01*
X181397000Y-81567250D01*
X179520000Y-81567250D01*
X179520000Y-80367655D01*
X181397000Y-80367655D01*
X181397000Y-80992750D01*
X181555250Y-81151000D01*
X182751000Y-81151000D01*
X182751000Y-79955250D01*
X183009000Y-79955250D01*
X183009000Y-81151000D01*
X184204750Y-81151000D01*
X184363000Y-80992750D01*
X184363000Y-80645000D01*
X185967073Y-80645000D01*
X185990725Y-80885142D01*
X186060772Y-81116055D01*
X186174522Y-81328866D01*
X186327603Y-81515397D01*
X186514134Y-81668478D01*
X186726945Y-81782228D01*
X186957858Y-81852275D01*
X187137822Y-81870000D01*
X187258178Y-81870000D01*
X187438142Y-81852275D01*
X187669055Y-81782228D01*
X187881866Y-81668478D01*
X188068397Y-81515397D01*
X188221478Y-81328866D01*
X188335228Y-81116055D01*
X188405275Y-80885142D01*
X188428927Y-80645000D01*
X188507073Y-80645000D01*
X188530725Y-80885142D01*
X188600772Y-81116055D01*
X188714522Y-81328866D01*
X188867603Y-81515397D01*
X189054134Y-81668478D01*
X189266945Y-81782228D01*
X189497858Y-81852275D01*
X189677822Y-81870000D01*
X189798178Y-81870000D01*
X189978142Y-81852275D01*
X190209055Y-81782228D01*
X190421866Y-81668478D01*
X190608397Y-81515397D01*
X190761478Y-81328866D01*
X190875228Y-81116055D01*
X190945275Y-80885142D01*
X190968927Y-80645000D01*
X190945275Y-80404858D01*
X190875228Y-80173945D01*
X190761478Y-79961134D01*
X190608397Y-79774603D01*
X190421866Y-79621522D01*
X190209055Y-79507772D01*
X189978142Y-79437725D01*
X189798178Y-79420000D01*
X189677822Y-79420000D01*
X189497858Y-79437725D01*
X189266945Y-79507772D01*
X189054134Y-79621522D01*
X188867603Y-79774603D01*
X188714522Y-79961134D01*
X188600772Y-80173945D01*
X188530725Y-80404858D01*
X188507073Y-80645000D01*
X188428927Y-80645000D01*
X188405275Y-80404858D01*
X188335228Y-80173945D01*
X188221478Y-79961134D01*
X188068397Y-79774603D01*
X187881866Y-79621522D01*
X187669055Y-79507772D01*
X187438142Y-79437725D01*
X187258178Y-79420000D01*
X187137822Y-79420000D01*
X186957858Y-79437725D01*
X186726945Y-79507772D01*
X186514134Y-79621522D01*
X186327603Y-79774603D01*
X186174522Y-79961134D01*
X186060772Y-80173945D01*
X185990725Y-80404858D01*
X185967073Y-80645000D01*
X184363000Y-80645000D01*
X184363000Y-80367655D01*
X184338674Y-80245361D01*
X184290957Y-80130162D01*
X184221683Y-80026486D01*
X184133514Y-79938317D01*
X184029838Y-79869043D01*
X183914639Y-79821326D01*
X183792345Y-79797000D01*
X183167250Y-79797000D01*
X183009000Y-79955250D01*
X182751000Y-79955250D01*
X182592750Y-79797000D01*
X181967655Y-79797000D01*
X181845361Y-79821326D01*
X181730162Y-79869043D01*
X181626486Y-79938317D01*
X181538317Y-80026486D01*
X181469043Y-80130162D01*
X181421326Y-80245361D01*
X181397000Y-80367655D01*
X179520000Y-80367655D01*
X179520000Y-79190000D01*
X199768998Y-79190000D01*
X199768998Y-79326545D01*
X199768998Y-79326545D01*
G37*
X199768998Y-79326545D02*
X199539475Y-79205990D01*
X199396630Y-79249317D01*
X199133979Y-79373947D01*
X198900689Y-79547423D01*
X198705725Y-79763078D01*
X198556580Y-80012625D01*
X198497003Y-80179796D01*
X198495228Y-80173945D01*
X198381478Y-79961134D01*
X198228397Y-79774603D01*
X198041866Y-79621522D01*
X197829055Y-79507772D01*
X197598142Y-79437725D01*
X197418178Y-79420000D01*
X197297822Y-79420000D01*
X197117858Y-79437725D01*
X196886945Y-79507772D01*
X196674134Y-79621522D01*
X196487603Y-79774603D01*
X196334522Y-79961134D01*
X196220772Y-80173945D01*
X196150725Y-80404858D01*
X196127073Y-80645000D01*
X196150725Y-80885142D01*
X196220772Y-81116055D01*
X196334522Y-81328866D01*
X196487603Y-81515397D01*
X196674134Y-81668478D01*
X196886945Y-81782228D01*
X197117858Y-81852275D01*
X197297822Y-81870000D01*
X197418178Y-81870000D01*
X197598142Y-81852275D01*
X197797649Y-81791755D01*
X197871812Y-81865918D01*
X197871817Y-81865922D01*
X198033002Y-82027107D01*
X198033002Y-82156784D01*
X197829055Y-82047772D01*
X197598142Y-81977725D01*
X197418178Y-81960000D01*
X197297822Y-81960000D01*
X197117858Y-81977725D01*
X196886945Y-82047772D01*
X196674134Y-82161522D01*
X196487603Y-82314603D01*
X196373001Y-82454247D01*
X196373001Y-81781604D01*
X196375129Y-81760000D01*
X196373001Y-81738394D01*
X196366634Y-81673746D01*
X196341474Y-81590806D01*
X196314783Y-81540871D01*
X196300617Y-81514367D01*
X196275542Y-81483814D01*
X196245633Y-81447369D01*
X196228843Y-81433590D01*
X195994409Y-81199156D01*
X195994404Y-81199150D01*
X195939930Y-81144676D01*
X195955228Y-81116055D01*
X196025275Y-80885142D01*
X196048927Y-80645000D01*
X196025275Y-80404858D01*
X195955228Y-80173945D01*
X195841478Y-79961134D01*
X195688397Y-79774603D01*
X195501866Y-79621522D01*
X195289055Y-79507772D01*
X195058142Y-79437725D01*
X194878178Y-79420000D01*
X194757822Y-79420000D01*
X194577858Y-79437725D01*
X194346945Y-79507772D01*
X194134134Y-79621522D01*
X193947603Y-79774603D01*
X193794522Y-79961134D01*
X193680772Y-80173945D01*
X193610725Y-80404858D01*
X193587073Y-80645000D01*
X193610725Y-80885142D01*
X193680772Y-81116055D01*
X193794522Y-81328866D01*
X193947603Y-81515397D01*
X194134134Y-81668478D01*
X194346945Y-81782228D01*
X194577858Y-81852275D01*
X194757822Y-81870000D01*
X194878178Y-81870000D01*
X195058142Y-81852275D01*
X195289055Y-81782228D01*
X195317676Y-81766930D01*
X195372150Y-81821404D01*
X195372156Y-81821409D01*
X195493002Y-81942255D01*
X195493002Y-82156784D01*
X195289055Y-82047772D01*
X195058142Y-81977725D01*
X194878178Y-81960000D01*
X194757822Y-81960000D01*
X194577858Y-81977725D01*
X194346945Y-82047772D01*
X194134134Y-82161522D01*
X193947603Y-82314603D01*
X193833001Y-82454247D01*
X193833001Y-81781604D01*
X193835129Y-81760000D01*
X193833001Y-81738394D01*
X193826634Y-81673746D01*
X193801474Y-81590806D01*
X193774783Y-81540871D01*
X193760617Y-81514367D01*
X193735542Y-81483814D01*
X193705633Y-81447369D01*
X193688843Y-81433590D01*
X193454409Y-81199156D01*
X193454404Y-81199150D01*
X193399930Y-81144676D01*
X193415228Y-81116055D01*
X193485275Y-80885142D01*
X193508927Y-80645000D01*
X193485275Y-80404858D01*
X193415228Y-80173945D01*
X193301478Y-79961134D01*
X193148397Y-79774603D01*
X192961866Y-79621522D01*
X192749055Y-79507772D01*
X192518142Y-79437725D01*
X192338178Y-79420000D01*
X192217822Y-79420000D01*
X192037858Y-79437725D01*
X191806945Y-79507772D01*
X191594134Y-79621522D01*
X191407603Y-79774603D01*
X191254522Y-79961134D01*
X191140772Y-80173945D01*
X191070725Y-80404858D01*
X191047073Y-80645000D01*
X191070725Y-80885142D01*
X191140772Y-81116055D01*
X191254522Y-81328866D01*
X191407603Y-81515397D01*
X191594134Y-81668478D01*
X191806945Y-81782228D01*
X192037858Y-81852275D01*
X192217822Y-81870000D01*
X192338178Y-81870000D01*
X192518142Y-81852275D01*
X192749055Y-81782228D01*
X192777676Y-81766930D01*
X192832150Y-81821404D01*
X192832156Y-81821409D01*
X192953002Y-81942255D01*
X192953002Y-82156784D01*
X192749055Y-82047772D01*
X192518142Y-81977725D01*
X192338178Y-81960000D01*
X192217822Y-81960000D01*
X192037858Y-81977725D01*
X191806945Y-82047772D01*
X191594134Y-82161522D01*
X191407603Y-82314603D01*
X191254522Y-82501134D01*
X191140772Y-82713945D01*
X191070725Y-82944858D01*
X191047073Y-83185000D01*
X191070725Y-83425142D01*
X191140772Y-83656055D01*
X191254522Y-83868866D01*
X191407603Y-84055397D01*
X191594134Y-84208478D01*
X191806945Y-84322228D01*
X192037858Y-84392275D01*
X192217822Y-84410000D01*
X192338178Y-84410000D01*
X192518142Y-84392275D01*
X192749055Y-84322228D01*
X192777676Y-84306930D01*
X193616001Y-85145255D01*
X193616000Y-89107746D01*
X192731411Y-88223158D01*
X192717632Y-88206368D01*
X192650633Y-88151384D01*
X192574195Y-88110527D01*
X192491255Y-88085367D01*
X192426607Y-88079000D01*
X192426604Y-88079000D01*
X192405000Y-88076872D01*
X192383396Y-88079000D01*
X190757086Y-88079000D01*
X190720982Y-88024966D01*
X190613034Y-87917018D01*
X190486100Y-87832204D01*
X190345059Y-87773783D01*
X190195331Y-87744000D01*
X190042669Y-87744000D01*
X189892941Y-87773783D01*
X189751900Y-87832204D01*
X189624966Y-87917018D01*
X189517018Y-88024966D01*
X189432204Y-88151900D01*
X189373783Y-88292941D01*
X189370000Y-88311959D01*
X189370000Y-88188669D01*
X189340217Y-88038941D01*
X189281796Y-87897900D01*
X189196982Y-87770966D01*
X189089034Y-87663018D01*
X188962100Y-87578204D01*
X188821059Y-87519783D01*
X188671331Y-87490000D01*
X188518669Y-87490000D01*
X188368941Y-87519783D01*
X188227900Y-87578204D01*
X188100966Y-87663018D01*
X187998984Y-87765000D01*
X187095557Y-87765000D01*
X187070999Y-87762581D01*
X187046441Y-87765000D01*
X187046440Y-87765000D01*
X186972983Y-87772235D01*
X186878733Y-87800825D01*
X186791871Y-87847254D01*
X186715736Y-87909736D01*
X186700075Y-87928819D01*
X184852895Y-89776000D01*
X184708669Y-89776000D01*
X184558941Y-89805783D01*
X184417900Y-89864204D01*
X184290966Y-89949018D01*
X184188984Y-90051000D01*
X183793560Y-90051000D01*
X183769000Y-90048581D01*
X183744440Y-90051000D01*
X183670983Y-90058235D01*
X183576733Y-90086825D01*
X183489871Y-90133254D01*
X183413736Y-90195736D01*
X183398080Y-90214813D01*
X183319648Y-90293245D01*
X183120142Y-90232725D01*
X182940178Y-90215000D01*
X182819822Y-90215000D01*
X182639858Y-90232725D01*
X182408945Y-90302772D01*
X182196134Y-90416522D01*
X182009603Y-90569603D01*
X181856522Y-90756134D01*
X181742772Y-90968945D01*
X181672725Y-91199858D01*
X181649073Y-91440000D01*
X181672725Y-91680142D01*
X181742772Y-91911055D01*
X181856522Y-92123866D01*
X182009603Y-92310397D01*
X182196134Y-92463478D01*
X182408945Y-92577228D01*
X182639858Y-92647275D01*
X182819822Y-92665000D01*
X182940178Y-92665000D01*
X183120142Y-92647275D01*
X183351055Y-92577228D01*
X183563866Y-92463478D01*
X183750397Y-92310397D01*
X183903478Y-92123866D01*
X184017228Y-91911055D01*
X184087275Y-91680142D01*
X184110927Y-91440000D01*
X184087275Y-91199858D01*
X184042119Y-91051000D01*
X184188984Y-91051000D01*
X184290966Y-91152982D01*
X184417900Y-91237796D01*
X184558941Y-91296217D01*
X184708669Y-91326000D01*
X184861331Y-91326000D01*
X185011059Y-91296217D01*
X185152100Y-91237796D01*
X185279034Y-91152982D01*
X185386982Y-91045034D01*
X185471796Y-90918100D01*
X185530217Y-90777059D01*
X185560000Y-90627331D01*
X185560000Y-90483105D01*
X187278106Y-88765000D01*
X187998984Y-88765000D01*
X188100966Y-88866982D01*
X188227900Y-88951796D01*
X188368941Y-89010217D01*
X188518669Y-89040000D01*
X188671331Y-89040000D01*
X188821059Y-89010217D01*
X188962100Y-88951796D01*
X189089034Y-88866982D01*
X189196982Y-88759034D01*
X189281796Y-88632100D01*
X189340217Y-88491059D01*
X189344000Y-88472041D01*
X189344000Y-88595331D01*
X189373783Y-88745059D01*
X189432204Y-88886100D01*
X189517018Y-89013034D01*
X189624966Y-89120982D01*
X189751900Y-89205796D01*
X189892941Y-89264217D01*
X190042669Y-89294000D01*
X190195331Y-89294000D01*
X190345059Y-89264217D01*
X190486100Y-89205796D01*
X190613034Y-89120982D01*
X190720982Y-89013034D01*
X190757086Y-88959000D01*
X192222747Y-88959000D01*
X192856167Y-89592421D01*
X192758059Y-89551783D01*
X192608331Y-89522000D01*
X192455669Y-89522000D01*
X192305941Y-89551783D01*
X192164900Y-89610204D01*
X192037966Y-89695018D01*
X191930018Y-89802966D01*
X191845204Y-89929900D01*
X191786783Y-90070941D01*
X191757000Y-90220669D01*
X191757000Y-90373331D01*
X191786783Y-90523059D01*
X191845204Y-90664100D01*
X191930018Y-90791034D01*
X192037966Y-90898982D01*
X192092001Y-90935087D01*
X192092000Y-91857879D01*
X192089872Y-91879484D01*
X192092000Y-91901088D01*
X192092000Y-91901090D01*
X192098367Y-91965738D01*
X192123527Y-92048678D01*
X192142546Y-92084260D01*
X192164384Y-92125117D01*
X192173421Y-92136128D01*
X192219368Y-92192116D01*
X192236158Y-92205895D01*
X193036109Y-93005847D01*
X193049884Y-93022632D01*
X193066667Y-93036405D01*
X193116882Y-93077616D01*
X193151651Y-93096200D01*
X193193321Y-93118473D01*
X193276261Y-93143633D01*
X193340909Y-93150000D01*
X193340911Y-93150000D01*
X193362516Y-93152128D01*
X193384120Y-93150000D01*
X195342043Y-93150000D01*
X195451885Y-93259842D01*
X195465664Y-93276632D01*
X195509916Y-93312948D01*
X195532662Y-93331616D01*
X195573519Y-93353454D01*
X195609101Y-93372473D01*
X195692041Y-93397633D01*
X195756689Y-93404000D01*
X195756691Y-93404000D01*
X195778295Y-93406128D01*
X195799899Y-93404000D01*
X196921747Y-93404000D01*
X197031589Y-93513842D01*
X197044849Y-93530000D01*
X179520000Y-93530000D01*
X179520000Y-88900000D01*
X181649073Y-88900000D01*
X181672725Y-89140142D01*
X181742772Y-89371055D01*
X181856522Y-89583866D01*
X182009603Y-89770397D01*
X182196134Y-89923478D01*
X182408945Y-90037228D01*
X182639858Y-90107275D01*
X182819822Y-90125000D01*
X182940178Y-90125000D01*
X183120142Y-90107275D01*
X183351055Y-90037228D01*
X183563866Y-89923478D01*
X183750397Y-89770397D01*
X183903478Y-89583866D01*
X184017228Y-89371055D01*
X184087275Y-89140142D01*
X184110927Y-88900000D01*
X184087275Y-88659858D01*
X184017228Y-88428945D01*
X183903478Y-88216134D01*
X183750397Y-88029603D01*
X183563866Y-87876522D01*
X183351055Y-87762772D01*
X183120142Y-87692725D01*
X182940178Y-87675000D01*
X182819822Y-87675000D01*
X182639858Y-87692725D01*
X182408945Y-87762772D01*
X182196134Y-87876522D01*
X182009603Y-88029603D01*
X181856522Y-88216134D01*
X181742772Y-88428945D01*
X181672725Y-88659858D01*
X181649073Y-88900000D01*
X179520000Y-88900000D01*
X179520000Y-86360000D01*
X181649073Y-86360000D01*
X181672725Y-86600142D01*
X181742772Y-86831055D01*
X181856522Y-87043866D01*
X182009603Y-87230397D01*
X182196134Y-87383478D01*
X182408945Y-87497228D01*
X182639858Y-87567275D01*
X182819822Y-87585000D01*
X182940178Y-87585000D01*
X183120142Y-87567275D01*
X183351055Y-87497228D01*
X183563866Y-87383478D01*
X183750397Y-87230397D01*
X183903478Y-87043866D01*
X184017228Y-86831055D01*
X184087275Y-86600142D01*
X184110927Y-86360000D01*
X184087275Y-86119858D01*
X184017228Y-85888945D01*
X183903478Y-85676134D01*
X183750397Y-85489603D01*
X183563866Y-85336522D01*
X183351055Y-85222772D01*
X183120142Y-85152725D01*
X182940178Y-85135000D01*
X182819822Y-85135000D01*
X182639858Y-85152725D01*
X182408945Y-85222772D01*
X182196134Y-85336522D01*
X182009603Y-85489603D01*
X181856522Y-85676134D01*
X181742772Y-85888945D01*
X181672725Y-86119858D01*
X181649073Y-86360000D01*
X179520000Y-86360000D01*
X179520000Y-81567250D01*
X181397000Y-81567250D01*
X181397000Y-82192345D01*
X181421326Y-82314639D01*
X181469043Y-82429838D01*
X181538317Y-82533514D01*
X181626486Y-82621683D01*
X181730162Y-82690957D01*
X181845361Y-82738674D01*
X181967655Y-82763000D01*
X182258849Y-82763000D01*
X182196134Y-82796522D01*
X182009603Y-82949603D01*
X181856522Y-83136134D01*
X181742772Y-83348945D01*
X181672725Y-83579858D01*
X181649073Y-83820000D01*
X181672725Y-84060142D01*
X181742772Y-84291055D01*
X181856522Y-84503866D01*
X182009603Y-84690397D01*
X182196134Y-84843478D01*
X182408945Y-84957228D01*
X182639858Y-85027275D01*
X182819822Y-85045000D01*
X182940178Y-85045000D01*
X183120142Y-85027275D01*
X183351055Y-84957228D01*
X183563866Y-84843478D01*
X183750397Y-84690397D01*
X183903478Y-84503866D01*
X184017228Y-84291055D01*
X184087275Y-84060142D01*
X184110927Y-83820000D01*
X184087275Y-83579858D01*
X184017228Y-83348945D01*
X183903478Y-83136134D01*
X183750397Y-82949603D01*
X183563866Y-82796522D01*
X183501151Y-82763000D01*
X183792345Y-82763000D01*
X183914639Y-82738674D01*
X184029838Y-82690957D01*
X184133514Y-82621683D01*
X184221683Y-82533514D01*
X184290957Y-82429838D01*
X184330240Y-82335000D01*
X185971186Y-82335000D01*
X185971186Y-84035000D01*
X185978426Y-84108513D01*
X185999869Y-84179200D01*
X186034691Y-84244347D01*
X186081552Y-84301448D01*
X186138653Y-84348309D01*
X186203800Y-84383131D01*
X186274487Y-84404574D01*
X186348000Y-84411814D01*
X188006245Y-84411814D01*
X187976783Y-84482941D01*
X187947000Y-84632669D01*
X187947000Y-84785331D01*
X187976783Y-84935059D01*
X188035204Y-85076100D01*
X188120018Y-85203034D01*
X188227966Y-85310982D01*
X188282001Y-85347087D01*
X188282001Y-85703386D01*
X188279872Y-85725000D01*
X188288368Y-85811255D01*
X188313528Y-85894195D01*
X188343714Y-85950670D01*
X188328000Y-86029669D01*
X188328000Y-86182331D01*
X188357783Y-86332059D01*
X188416204Y-86473100D01*
X188501018Y-86600034D01*
X188608966Y-86707982D01*
X188735900Y-86792796D01*
X188876941Y-86851217D01*
X189026669Y-86881000D01*
X189179331Y-86881000D01*
X189329059Y-86851217D01*
X189470100Y-86792796D01*
X189597034Y-86707982D01*
X189704982Y-86600034D01*
X189789796Y-86473100D01*
X189848217Y-86332059D01*
X189878000Y-86182331D01*
X189878000Y-86029669D01*
X189848217Y-85879941D01*
X189789796Y-85738900D01*
X189704982Y-85611966D01*
X189597034Y-85504018D01*
X189470100Y-85419204D01*
X189329059Y-85360783D01*
X189184528Y-85332034D01*
X189216034Y-85310982D01*
X189323982Y-85203034D01*
X189408796Y-85076100D01*
X189467217Y-84935059D01*
X189497000Y-84785331D01*
X189497000Y-84632669D01*
X189467217Y-84482941D01*
X189419862Y-84368615D01*
X189497858Y-84392275D01*
X189677822Y-84410000D01*
X189798178Y-84410000D01*
X189978142Y-84392275D01*
X190209055Y-84322228D01*
X190421866Y-84208478D01*
X190608397Y-84055397D01*
X190761478Y-83868866D01*
X190875228Y-83656055D01*
X190945275Y-83425142D01*
X190968927Y-83185000D01*
X190945275Y-82944858D01*
X190875228Y-82713945D01*
X190761478Y-82501134D01*
X190608397Y-82314603D01*
X190421866Y-82161522D01*
X190209055Y-82047772D01*
X189978142Y-81977725D01*
X189798178Y-81960000D01*
X189677822Y-81960000D01*
X189497858Y-81977725D01*
X189266945Y-82047772D01*
X189054134Y-82161522D01*
X188867603Y-82314603D01*
X188714522Y-82501134D01*
X188600772Y-82713945D01*
X188530725Y-82944858D01*
X188507073Y-83185000D01*
X188530725Y-83425142D01*
X188600772Y-83656055D01*
X188714522Y-83868866D01*
X188767976Y-83934000D01*
X188645669Y-83934000D01*
X188495941Y-83963783D01*
X188424814Y-83993245D01*
X188424814Y-82335000D01*
X188417574Y-82261487D01*
X188396131Y-82190800D01*
X188361309Y-82125653D01*
X188314448Y-82068552D01*
X188257347Y-82021691D01*
X188192200Y-81986869D01*
X188121513Y-81965426D01*
X188048000Y-81958186D01*
X186348000Y-81958186D01*
X186274487Y-81965426D01*
X186203800Y-81986869D01*
X186138653Y-82021691D01*
X186081552Y-82068552D01*
X186034691Y-82125653D01*
X185999869Y-82190800D01*
X185978426Y-82261487D01*
X185971186Y-82335000D01*
X184330240Y-82335000D01*
X184338674Y-82314639D01*
X184363000Y-82192345D01*
X184363000Y-81567250D01*
X184204750Y-81409000D01*
X183009000Y-81409000D01*
X183009000Y-81429000D01*
X182751000Y-81429000D01*
X182751000Y-81409000D01*
X181555250Y-81409000D01*
X181397000Y-81567250D01*
X179520000Y-81567250D01*
X179520000Y-80367655D01*
X181397000Y-80367655D01*
X181397000Y-80992750D01*
X181555250Y-81151000D01*
X182751000Y-81151000D01*
X182751000Y-79955250D01*
X183009000Y-79955250D01*
X183009000Y-81151000D01*
X184204750Y-81151000D01*
X184363000Y-80992750D01*
X184363000Y-80645000D01*
X185967073Y-80645000D01*
X185990725Y-80885142D01*
X186060772Y-81116055D01*
X186174522Y-81328866D01*
X186327603Y-81515397D01*
X186514134Y-81668478D01*
X186726945Y-81782228D01*
X186957858Y-81852275D01*
X187137822Y-81870000D01*
X187258178Y-81870000D01*
X187438142Y-81852275D01*
X187669055Y-81782228D01*
X187881866Y-81668478D01*
X188068397Y-81515397D01*
X188221478Y-81328866D01*
X188335228Y-81116055D01*
X188405275Y-80885142D01*
X188428927Y-80645000D01*
X188507073Y-80645000D01*
X188530725Y-80885142D01*
X188600772Y-81116055D01*
X188714522Y-81328866D01*
X188867603Y-81515397D01*
X189054134Y-81668478D01*
X189266945Y-81782228D01*
X189497858Y-81852275D01*
X189677822Y-81870000D01*
X189798178Y-81870000D01*
X189978142Y-81852275D01*
X190209055Y-81782228D01*
X190421866Y-81668478D01*
X190608397Y-81515397D01*
X190761478Y-81328866D01*
X190875228Y-81116055D01*
X190945275Y-80885142D01*
X190968927Y-80645000D01*
X190945275Y-80404858D01*
X190875228Y-80173945D01*
X190761478Y-79961134D01*
X190608397Y-79774603D01*
X190421866Y-79621522D01*
X190209055Y-79507772D01*
X189978142Y-79437725D01*
X189798178Y-79420000D01*
X189677822Y-79420000D01*
X189497858Y-79437725D01*
X189266945Y-79507772D01*
X189054134Y-79621522D01*
X188867603Y-79774603D01*
X188714522Y-79961134D01*
X188600772Y-80173945D01*
X188530725Y-80404858D01*
X188507073Y-80645000D01*
X188428927Y-80645000D01*
X188405275Y-80404858D01*
X188335228Y-80173945D01*
X188221478Y-79961134D01*
X188068397Y-79774603D01*
X187881866Y-79621522D01*
X187669055Y-79507772D01*
X187438142Y-79437725D01*
X187258178Y-79420000D01*
X187137822Y-79420000D01*
X186957858Y-79437725D01*
X186726945Y-79507772D01*
X186514134Y-79621522D01*
X186327603Y-79774603D01*
X186174522Y-79961134D01*
X186060772Y-80173945D01*
X185990725Y-80404858D01*
X185967073Y-80645000D01*
X184363000Y-80645000D01*
X184363000Y-80367655D01*
X184338674Y-80245361D01*
X184290957Y-80130162D01*
X184221683Y-80026486D01*
X184133514Y-79938317D01*
X184029838Y-79869043D01*
X183914639Y-79821326D01*
X183792345Y-79797000D01*
X183167250Y-79797000D01*
X183009000Y-79955250D01*
X182751000Y-79955250D01*
X182592750Y-79797000D01*
X181967655Y-79797000D01*
X181845361Y-79821326D01*
X181730162Y-79869043D01*
X181626486Y-79938317D01*
X181538317Y-80026486D01*
X181469043Y-80130162D01*
X181421326Y-80245361D01*
X181397000Y-80367655D01*
X179520000Y-80367655D01*
X179520000Y-79190000D01*
X199768998Y-79190000D01*
X199768998Y-79326545D01*
G36*
X202996669Y-90183000D02*
X203140895Y-90183000D01*
X203958245Y-91000351D01*
X203897725Y-91199858D01*
X203874073Y-91440000D01*
X203897725Y-91680142D01*
X203922556Y-91762000D01*
X203067744Y-91762000D01*
X203062044Y-91733345D01*
X203040601Y-91662659D01*
X203003092Y-91572103D01*
X202968270Y-91506955D01*
X202913814Y-91425456D01*
X202866953Y-91368355D01*
X202797645Y-91299047D01*
X202740544Y-91252186D01*
X202659045Y-91197730D01*
X202593897Y-91162908D01*
X202503341Y-91125399D01*
X202432655Y-91103956D01*
X202336522Y-91084834D01*
X202263009Y-91077594D01*
X202238450Y-91077594D01*
X202214000Y-91075186D01*
X201664000Y-91075186D01*
X201590487Y-91082426D01*
X201539000Y-91098045D01*
X201487513Y-91082426D01*
X201414000Y-91075186D01*
X200505615Y-91075186D01*
X200447595Y-91027570D01*
X200359344Y-90980398D01*
X200263585Y-90951350D01*
X200164000Y-90941542D01*
X199614000Y-90941542D01*
X199589551Y-90943950D01*
X199564991Y-90943950D01*
X199465406Y-90953758D01*
X199369273Y-90972880D01*
X199273517Y-91001927D01*
X199182961Y-91039436D01*
X199094706Y-91086609D01*
X199013207Y-91141065D01*
X198941000Y-91200325D01*
X198941000Y-90409675D01*
X199013207Y-90468935D01*
X199094706Y-90523391D01*
X199182961Y-90570564D01*
X199273517Y-90608073D01*
X199369273Y-90637120D01*
X199465406Y-90656242D01*
X199564991Y-90666050D01*
X199589551Y-90666050D01*
X199614000Y-90668458D01*
X200164000Y-90668458D01*
X200263585Y-90658650D01*
X200359344Y-90629602D01*
X200447595Y-90582430D01*
X200505615Y-90534814D01*
X201414000Y-90534814D01*
X201487513Y-90527574D01*
X201539000Y-90511955D01*
X201590487Y-90527574D01*
X201664000Y-90534814D01*
X202214000Y-90534814D01*
X202238450Y-90532406D01*
X202263009Y-90532406D01*
X202336522Y-90525166D01*
X202432655Y-90506044D01*
X202503341Y-90484601D01*
X202593897Y-90447092D01*
X202659045Y-90412270D01*
X202740544Y-90357814D01*
X202797645Y-90310953D01*
X202866953Y-90241645D01*
X202913814Y-90184544D01*
X202924445Y-90168634D01*
X202996669Y-90183000D01*
X202996669Y-90183000D01*
G37*
X202996669Y-90183000D02*
X203140895Y-90183000D01*
X203958245Y-91000351D01*
X203897725Y-91199858D01*
X203874073Y-91440000D01*
X203897725Y-91680142D01*
X203922556Y-91762000D01*
X203067744Y-91762000D01*
X203062044Y-91733345D01*
X203040601Y-91662659D01*
X203003092Y-91572103D01*
X202968270Y-91506955D01*
X202913814Y-91425456D01*
X202866953Y-91368355D01*
X202797645Y-91299047D01*
X202740544Y-91252186D01*
X202659045Y-91197730D01*
X202593897Y-91162908D01*
X202503341Y-91125399D01*
X202432655Y-91103956D01*
X202336522Y-91084834D01*
X202263009Y-91077594D01*
X202238450Y-91077594D01*
X202214000Y-91075186D01*
X201664000Y-91075186D01*
X201590487Y-91082426D01*
X201539000Y-91098045D01*
X201487513Y-91082426D01*
X201414000Y-91075186D01*
X200505615Y-91075186D01*
X200447595Y-91027570D01*
X200359344Y-90980398D01*
X200263585Y-90951350D01*
X200164000Y-90941542D01*
X199614000Y-90941542D01*
X199589551Y-90943950D01*
X199564991Y-90943950D01*
X199465406Y-90953758D01*
X199369273Y-90972880D01*
X199273517Y-91001927D01*
X199182961Y-91039436D01*
X199094706Y-91086609D01*
X199013207Y-91141065D01*
X198941000Y-91200325D01*
X198941000Y-90409675D01*
X199013207Y-90468935D01*
X199094706Y-90523391D01*
X199182961Y-90570564D01*
X199273517Y-90608073D01*
X199369273Y-90637120D01*
X199465406Y-90656242D01*
X199564991Y-90666050D01*
X199589551Y-90666050D01*
X199614000Y-90668458D01*
X200164000Y-90668458D01*
X200263585Y-90658650D01*
X200359344Y-90629602D01*
X200447595Y-90582430D01*
X200505615Y-90534814D01*
X201414000Y-90534814D01*
X201487513Y-90527574D01*
X201539000Y-90511955D01*
X201590487Y-90527574D01*
X201664000Y-90534814D01*
X202214000Y-90534814D01*
X202238450Y-90532406D01*
X202263009Y-90532406D01*
X202336522Y-90525166D01*
X202432655Y-90506044D01*
X202503341Y-90484601D01*
X202593897Y-90447092D01*
X202659045Y-90412270D01*
X202740544Y-90357814D01*
X202797645Y-90310953D01*
X202866953Y-90241645D01*
X202913814Y-90184544D01*
X202924445Y-90168634D01*
X202996669Y-90183000D01*
G36*
X196487603Y-84055397D02*
X196674134Y-84208478D01*
X196886945Y-84322228D01*
X196928286Y-84334769D01*
X196877941Y-84344783D01*
X196736900Y-84403204D01*
X196609966Y-84488018D01*
X196502018Y-84595966D01*
X196417204Y-84722900D01*
X196358783Y-84863941D01*
X196329000Y-85013669D01*
X196329000Y-85166331D01*
X196358783Y-85316059D01*
X196417204Y-85457100D01*
X196502018Y-85584034D01*
X196609966Y-85691982D01*
X196736900Y-85776796D01*
X196877941Y-85835217D01*
X197027669Y-85865000D01*
X197180331Y-85865000D01*
X197330059Y-85835217D01*
X197471100Y-85776796D01*
X197563585Y-85715000D01*
X198885131Y-85715000D01*
X198866547Y-85733584D01*
X198803065Y-85810936D01*
X198748609Y-85892435D01*
X198701436Y-85980690D01*
X198663927Y-86071246D01*
X198634880Y-86167002D01*
X198615758Y-86263135D01*
X198605950Y-86362720D01*
X198605950Y-86387280D01*
X198603542Y-86411729D01*
X198603542Y-86911729D01*
X198605950Y-86936178D01*
X198605950Y-86960738D01*
X198615758Y-87060323D01*
X198634880Y-87156456D01*
X198659233Y-87236739D01*
X197967865Y-87236739D01*
X197946261Y-87234611D01*
X197924657Y-87236739D01*
X197924654Y-87236739D01*
X197860006Y-87243106D01*
X197777066Y-87268266D01*
X197700627Y-87309123D01*
X197663431Y-87339649D01*
X197633629Y-87364107D01*
X197624264Y-87375518D01*
X197561331Y-87363000D01*
X197408669Y-87363000D01*
X197258941Y-87392783D01*
X197117900Y-87451204D01*
X196990966Y-87536018D01*
X196883018Y-87643966D01*
X196798204Y-87770900D01*
X196739783Y-87911941D01*
X196710000Y-88061669D01*
X196710000Y-88214331D01*
X196739783Y-88364059D01*
X196798204Y-88505100D01*
X196883018Y-88632034D01*
X196990966Y-88739982D01*
X197117900Y-88824796D01*
X197258941Y-88883217D01*
X197279814Y-88887369D01*
X197131941Y-88916783D01*
X196990900Y-88975204D01*
X196863966Y-89060018D01*
X196756018Y-89167966D01*
X196719914Y-89222000D01*
X195974958Y-89222000D01*
X195588010Y-88835053D01*
X195588010Y-84687445D01*
X196228849Y-84046607D01*
X196245633Y-84032833D01*
X196300445Y-83966044D01*
X196300617Y-83965835D01*
X196341474Y-83889397D01*
X196344145Y-83880592D01*
X196487603Y-84055397D01*
X196487603Y-84055397D01*
G37*
X196487603Y-84055397D02*
X196674134Y-84208478D01*
X196886945Y-84322228D01*
X196928286Y-84334769D01*
X196877941Y-84344783D01*
X196736900Y-84403204D01*
X196609966Y-84488018D01*
X196502018Y-84595966D01*
X196417204Y-84722900D01*
X196358783Y-84863941D01*
X196329000Y-85013669D01*
X196329000Y-85166331D01*
X196358783Y-85316059D01*
X196417204Y-85457100D01*
X196502018Y-85584034D01*
X196609966Y-85691982D01*
X196736900Y-85776796D01*
X196877941Y-85835217D01*
X197027669Y-85865000D01*
X197180331Y-85865000D01*
X197330059Y-85835217D01*
X197471100Y-85776796D01*
X197563585Y-85715000D01*
X198885131Y-85715000D01*
X198866547Y-85733584D01*
X198803065Y-85810936D01*
X198748609Y-85892435D01*
X198701436Y-85980690D01*
X198663927Y-86071246D01*
X198634880Y-86167002D01*
X198615758Y-86263135D01*
X198605950Y-86362720D01*
X198605950Y-86387280D01*
X198603542Y-86411729D01*
X198603542Y-86911729D01*
X198605950Y-86936178D01*
X198605950Y-86960738D01*
X198615758Y-87060323D01*
X198634880Y-87156456D01*
X198659233Y-87236739D01*
X197967865Y-87236739D01*
X197946261Y-87234611D01*
X197924657Y-87236739D01*
X197924654Y-87236739D01*
X197860006Y-87243106D01*
X197777066Y-87268266D01*
X197700627Y-87309123D01*
X197663431Y-87339649D01*
X197633629Y-87364107D01*
X197624264Y-87375518D01*
X197561331Y-87363000D01*
X197408669Y-87363000D01*
X197258941Y-87392783D01*
X197117900Y-87451204D01*
X196990966Y-87536018D01*
X196883018Y-87643966D01*
X196798204Y-87770900D01*
X196739783Y-87911941D01*
X196710000Y-88061669D01*
X196710000Y-88214331D01*
X196739783Y-88364059D01*
X196798204Y-88505100D01*
X196883018Y-88632034D01*
X196990966Y-88739982D01*
X197117900Y-88824796D01*
X197258941Y-88883217D01*
X197279814Y-88887369D01*
X197131941Y-88916783D01*
X196990900Y-88975204D01*
X196863966Y-89060018D01*
X196756018Y-89167966D01*
X196719914Y-89222000D01*
X195974958Y-89222000D01*
X195588010Y-88835053D01*
X195588010Y-84687445D01*
X196228849Y-84046607D01*
X196245633Y-84032833D01*
X196300445Y-83966044D01*
X196300617Y-83965835D01*
X196341474Y-83889397D01*
X196344145Y-83880592D01*
X196487603Y-84055397D01*
G36*
X206560000Y-80236491D02*
X206515957Y-80130162D01*
X206446683Y-80026486D01*
X206358514Y-79938317D01*
X206254838Y-79869043D01*
X206139639Y-79821326D01*
X206017345Y-79797000D01*
X205392250Y-79797000D01*
X205234000Y-79955250D01*
X205234000Y-81151000D01*
X205254000Y-81151000D01*
X205254000Y-81409000D01*
X205234000Y-81409000D01*
X205234000Y-81429000D01*
X204976000Y-81429000D01*
X204976000Y-81409000D01*
X203780250Y-81409000D01*
X203622000Y-81567250D01*
X203622000Y-82192345D01*
X203646326Y-82314639D01*
X203694043Y-82429838D01*
X203763317Y-82533514D01*
X203851486Y-82621683D01*
X203955162Y-82690957D01*
X204070361Y-82738674D01*
X204192655Y-82763000D01*
X204483849Y-82763000D01*
X204421134Y-82796522D01*
X204234603Y-82949603D01*
X204081522Y-83136134D01*
X203967772Y-83348945D01*
X203897725Y-83579858D01*
X203874073Y-83820000D01*
X203897725Y-84060142D01*
X203967772Y-84291055D01*
X204076784Y-84495001D01*
X203972878Y-84495001D01*
X203945217Y-84355941D01*
X203886796Y-84214900D01*
X203801982Y-84087966D01*
X203694034Y-83980018D01*
X203567100Y-83895204D01*
X203426059Y-83836783D01*
X203276331Y-83807000D01*
X203123669Y-83807000D01*
X202973941Y-83836783D01*
X202832900Y-83895204D01*
X202705966Y-83980018D01*
X202598018Y-84087966D01*
X202513204Y-84214900D01*
X202454783Y-84355941D01*
X202433090Y-84465000D01*
X200611585Y-84465000D01*
X200519100Y-84403204D01*
X200378059Y-84344783D01*
X200327714Y-84334769D01*
X200369055Y-84322228D01*
X200581866Y-84208478D01*
X200768397Y-84055397D01*
X200921478Y-83868866D01*
X201035228Y-83656055D01*
X201105275Y-83425142D01*
X201128927Y-83185000D01*
X201105275Y-82944858D01*
X201035228Y-82713945D01*
X200921478Y-82501134D01*
X200768397Y-82314603D01*
X200581866Y-82161522D01*
X200371569Y-82049116D01*
X200399370Y-82040683D01*
X200662021Y-81916053D01*
X200895311Y-81742577D01*
X201090275Y-81526922D01*
X201239420Y-81277375D01*
X201337015Y-81003526D01*
X201217134Y-80774000D01*
X200027000Y-80774000D01*
X200027000Y-80794000D01*
X199769000Y-80794000D01*
X199769000Y-80774000D01*
X199749000Y-80774000D01*
X199749000Y-80516000D01*
X199769000Y-80516000D01*
X199769000Y-80496000D01*
X200027000Y-80496000D01*
X200027000Y-80516000D01*
X201217134Y-80516000D01*
X201294614Y-80367655D01*
X203622000Y-80367655D01*
X203622000Y-80992750D01*
X203780250Y-81151000D01*
X204976000Y-81151000D01*
X204976000Y-79955250D01*
X204817750Y-79797000D01*
X204192655Y-79797000D01*
X204070361Y-79821326D01*
X203955162Y-79869043D01*
X203851486Y-79938317D01*
X203763317Y-80026486D01*
X203694043Y-80130162D01*
X203646326Y-80245361D01*
X203622000Y-80367655D01*
X201294614Y-80367655D01*
X201337015Y-80286474D01*
X201239420Y-80012625D01*
X201090275Y-79763078D01*
X200895311Y-79547423D01*
X200662021Y-79373947D01*
X200399370Y-79249317D01*
X200256525Y-79205990D01*
X200027002Y-79326545D01*
X200027002Y-79190000D01*
X206560000Y-79190000D01*
X206560000Y-80236491D01*
X206560000Y-80236491D01*
G37*
X206560000Y-80236491D02*
X206515957Y-80130162D01*
X206446683Y-80026486D01*
X206358514Y-79938317D01*
X206254838Y-79869043D01*
X206139639Y-79821326D01*
X206017345Y-79797000D01*
X205392250Y-79797000D01*
X205234000Y-79955250D01*
X205234000Y-81151000D01*
X205254000Y-81151000D01*
X205254000Y-81409000D01*
X205234000Y-81409000D01*
X205234000Y-81429000D01*
X204976000Y-81429000D01*
X204976000Y-81409000D01*
X203780250Y-81409000D01*
X203622000Y-81567250D01*
X203622000Y-82192345D01*
X203646326Y-82314639D01*
X203694043Y-82429838D01*
X203763317Y-82533514D01*
X203851486Y-82621683D01*
X203955162Y-82690957D01*
X204070361Y-82738674D01*
X204192655Y-82763000D01*
X204483849Y-82763000D01*
X204421134Y-82796522D01*
X204234603Y-82949603D01*
X204081522Y-83136134D01*
X203967772Y-83348945D01*
X203897725Y-83579858D01*
X203874073Y-83820000D01*
X203897725Y-84060142D01*
X203967772Y-84291055D01*
X204076784Y-84495001D01*
X203972878Y-84495001D01*
X203945217Y-84355941D01*
X203886796Y-84214900D01*
X203801982Y-84087966D01*
X203694034Y-83980018D01*
X203567100Y-83895204D01*
X203426059Y-83836783D01*
X203276331Y-83807000D01*
X203123669Y-83807000D01*
X202973941Y-83836783D01*
X202832900Y-83895204D01*
X202705966Y-83980018D01*
X202598018Y-84087966D01*
X202513204Y-84214900D01*
X202454783Y-84355941D01*
X202433090Y-84465000D01*
X200611585Y-84465000D01*
X200519100Y-84403204D01*
X200378059Y-84344783D01*
X200327714Y-84334769D01*
X200369055Y-84322228D01*
X200581866Y-84208478D01*
X200768397Y-84055397D01*
X200921478Y-83868866D01*
X201035228Y-83656055D01*
X201105275Y-83425142D01*
X201128927Y-83185000D01*
X201105275Y-82944858D01*
X201035228Y-82713945D01*
X200921478Y-82501134D01*
X200768397Y-82314603D01*
X200581866Y-82161522D01*
X200371569Y-82049116D01*
X200399370Y-82040683D01*
X200662021Y-81916053D01*
X200895311Y-81742577D01*
X201090275Y-81526922D01*
X201239420Y-81277375D01*
X201337015Y-81003526D01*
X201217134Y-80774000D01*
X200027000Y-80774000D01*
X200027000Y-80794000D01*
X199769000Y-80794000D01*
X199769000Y-80774000D01*
X199749000Y-80774000D01*
X199749000Y-80516000D01*
X199769000Y-80516000D01*
X199769000Y-80496000D01*
X200027000Y-80496000D01*
X200027000Y-80516000D01*
X201217134Y-80516000D01*
X201294614Y-80367655D01*
X203622000Y-80367655D01*
X203622000Y-80992750D01*
X203780250Y-81151000D01*
X204976000Y-81151000D01*
X204976000Y-79955250D01*
X204817750Y-79797000D01*
X204192655Y-79797000D01*
X204070361Y-79821326D01*
X203955162Y-79869043D01*
X203851486Y-79938317D01*
X203763317Y-80026486D01*
X203694043Y-80130162D01*
X203646326Y-80245361D01*
X203622000Y-80367655D01*
X201294614Y-80367655D01*
X201337015Y-80286474D01*
X201239420Y-80012625D01*
X201090275Y-79763078D01*
X200895311Y-79547423D01*
X200662021Y-79373947D01*
X200399370Y-79249317D01*
X200256525Y-79205990D01*
X200027002Y-79326545D01*
X200027002Y-79190000D01*
X206560000Y-79190000D01*
X206560000Y-80236491D01*
G04 #@! TD*
M02*
