G04 #@! TF.GenerationSoftware,KiCad,Pcbnew,5.0.0*
G04 #@! TF.CreationDate,2018-11-11T13:40:21-05:00*
G04 #@! TF.ProjectId,Pi-I2C-Level-Shifter,50692D4932432D4C6576656C2D536869,rev?*
G04 #@! TF.SameCoordinates,Original*
G04 #@! TF.FileFunction,Paste,Top*
G04 #@! TF.FilePolarity,Positive*
%FSLAX46Y46*%
G04 Gerber Fmt 4.6, Leading zero omitted, Abs format (unit mm)*
G04 Created by KiCad (PCBNEW 5.0.0) date Sun Nov 11 13:40:21 2018*
%MOMM*%
%LPD*%
G01*
G04 APERTURE LIST*
%ADD10C,0.150000*%
%ADD11R,1.500000X0.450000*%
%ADD12C,0.100000*%
%ADD13C,0.975000*%
%ADD14R,1.100000X0.400000*%
G04 APERTURE END LIST*
D10*
G36*
X180162200Y-92532200D02*
X180263800Y-92544900D01*
X180352700Y-92583000D01*
X180416200Y-92633800D01*
X180479700Y-92697300D01*
X180517800Y-92798900D01*
X180530500Y-92887800D01*
X180530500Y-92964000D01*
X180505100Y-93052900D01*
X180467000Y-93116400D01*
X180378100Y-93205300D01*
X180314600Y-93243400D01*
X180225700Y-93268800D01*
X180098700Y-93268800D01*
X180009800Y-93243400D01*
X179946300Y-93205300D01*
X179857400Y-93116400D01*
X179806600Y-93014800D01*
X179793900Y-92964000D01*
X179793900Y-92837000D01*
X179832000Y-92722700D01*
X179946300Y-92595700D01*
X180009800Y-92557600D01*
X180098700Y-92532200D01*
X180124100Y-92532200D01*
X180162200Y-92532200D01*
G37*
X180162200Y-92532200D02*
X180263800Y-92544900D01*
X180352700Y-92583000D01*
X180416200Y-92633800D01*
X180479700Y-92697300D01*
X180517800Y-92798900D01*
X180530500Y-92887800D01*
X180530500Y-92964000D01*
X180505100Y-93052900D01*
X180467000Y-93116400D01*
X180378100Y-93205300D01*
X180314600Y-93243400D01*
X180225700Y-93268800D01*
X180098700Y-93268800D01*
X180009800Y-93243400D01*
X179946300Y-93205300D01*
X179857400Y-93116400D01*
X179806600Y-93014800D01*
X179793900Y-92964000D01*
X179793900Y-92837000D01*
X179832000Y-92722700D01*
X179946300Y-92595700D01*
X180009800Y-92557600D01*
X180098700Y-92532200D01*
X180124100Y-92532200D01*
X180162200Y-92532200D01*
D11*
G04 #@! TO.C,U2*
X194027000Y-88784000D03*
X194027000Y-89434000D03*
X194027000Y-90084000D03*
X194027000Y-90734000D03*
X194027000Y-91384000D03*
X194027000Y-92034000D03*
X194027000Y-92684000D03*
X194027000Y-93334000D03*
X199927000Y-93334000D03*
X199927000Y-92684000D03*
X199927000Y-92034000D03*
X199927000Y-91384000D03*
X199927000Y-90734000D03*
X199927000Y-90084000D03*
X199927000Y-89434000D03*
X199927000Y-88784000D03*
G04 #@! TD*
D12*
G04 #@! TO.C,C3*
G36*
X200341142Y-86169174D02*
X200364803Y-86172684D01*
X200388007Y-86178496D01*
X200410529Y-86186554D01*
X200432153Y-86196782D01*
X200452670Y-86209079D01*
X200471883Y-86223329D01*
X200489607Y-86239393D01*
X200505671Y-86257117D01*
X200519921Y-86276330D01*
X200532218Y-86296847D01*
X200542446Y-86318471D01*
X200550504Y-86340993D01*
X200556316Y-86364197D01*
X200559826Y-86387858D01*
X200561000Y-86411750D01*
X200561000Y-87324250D01*
X200559826Y-87348142D01*
X200556316Y-87371803D01*
X200550504Y-87395007D01*
X200542446Y-87417529D01*
X200532218Y-87439153D01*
X200519921Y-87459670D01*
X200505671Y-87478883D01*
X200489607Y-87496607D01*
X200471883Y-87512671D01*
X200452670Y-87526921D01*
X200432153Y-87539218D01*
X200410529Y-87549446D01*
X200388007Y-87557504D01*
X200364803Y-87563316D01*
X200341142Y-87566826D01*
X200317250Y-87568000D01*
X199829750Y-87568000D01*
X199805858Y-87566826D01*
X199782197Y-87563316D01*
X199758993Y-87557504D01*
X199736471Y-87549446D01*
X199714847Y-87539218D01*
X199694330Y-87526921D01*
X199675117Y-87512671D01*
X199657393Y-87496607D01*
X199641329Y-87478883D01*
X199627079Y-87459670D01*
X199614782Y-87439153D01*
X199604554Y-87417529D01*
X199596496Y-87395007D01*
X199590684Y-87371803D01*
X199587174Y-87348142D01*
X199586000Y-87324250D01*
X199586000Y-86411750D01*
X199587174Y-86387858D01*
X199590684Y-86364197D01*
X199596496Y-86340993D01*
X199604554Y-86318471D01*
X199614782Y-86296847D01*
X199627079Y-86276330D01*
X199641329Y-86257117D01*
X199657393Y-86239393D01*
X199675117Y-86223329D01*
X199694330Y-86209079D01*
X199714847Y-86196782D01*
X199736471Y-86186554D01*
X199758993Y-86178496D01*
X199782197Y-86172684D01*
X199805858Y-86169174D01*
X199829750Y-86168000D01*
X200317250Y-86168000D01*
X200341142Y-86169174D01*
X200341142Y-86169174D01*
G37*
D13*
X200073500Y-86868000D03*
D12*
G36*
X198466142Y-86169174D02*
X198489803Y-86172684D01*
X198513007Y-86178496D01*
X198535529Y-86186554D01*
X198557153Y-86196782D01*
X198577670Y-86209079D01*
X198596883Y-86223329D01*
X198614607Y-86239393D01*
X198630671Y-86257117D01*
X198644921Y-86276330D01*
X198657218Y-86296847D01*
X198667446Y-86318471D01*
X198675504Y-86340993D01*
X198681316Y-86364197D01*
X198684826Y-86387858D01*
X198686000Y-86411750D01*
X198686000Y-87324250D01*
X198684826Y-87348142D01*
X198681316Y-87371803D01*
X198675504Y-87395007D01*
X198667446Y-87417529D01*
X198657218Y-87439153D01*
X198644921Y-87459670D01*
X198630671Y-87478883D01*
X198614607Y-87496607D01*
X198596883Y-87512671D01*
X198577670Y-87526921D01*
X198557153Y-87539218D01*
X198535529Y-87549446D01*
X198513007Y-87557504D01*
X198489803Y-87563316D01*
X198466142Y-87566826D01*
X198442250Y-87568000D01*
X197954750Y-87568000D01*
X197930858Y-87566826D01*
X197907197Y-87563316D01*
X197883993Y-87557504D01*
X197861471Y-87549446D01*
X197839847Y-87539218D01*
X197819330Y-87526921D01*
X197800117Y-87512671D01*
X197782393Y-87496607D01*
X197766329Y-87478883D01*
X197752079Y-87459670D01*
X197739782Y-87439153D01*
X197729554Y-87417529D01*
X197721496Y-87395007D01*
X197715684Y-87371803D01*
X197712174Y-87348142D01*
X197711000Y-87324250D01*
X197711000Y-86411750D01*
X197712174Y-86387858D01*
X197715684Y-86364197D01*
X197721496Y-86340993D01*
X197729554Y-86318471D01*
X197739782Y-86296847D01*
X197752079Y-86276330D01*
X197766329Y-86257117D01*
X197782393Y-86239393D01*
X197800117Y-86223329D01*
X197819330Y-86209079D01*
X197839847Y-86196782D01*
X197861471Y-86186554D01*
X197883993Y-86178496D01*
X197907197Y-86172684D01*
X197930858Y-86169174D01*
X197954750Y-86168000D01*
X198442250Y-86168000D01*
X198466142Y-86169174D01*
X198466142Y-86169174D01*
G37*
D13*
X198198500Y-86868000D03*
G04 #@! TD*
D12*
G04 #@! TO.C,R4*
G36*
X202791142Y-92272174D02*
X202814803Y-92275684D01*
X202838007Y-92281496D01*
X202860529Y-92289554D01*
X202882153Y-92299782D01*
X202902670Y-92312079D01*
X202921883Y-92326329D01*
X202939607Y-92342393D01*
X202955671Y-92360117D01*
X202969921Y-92379330D01*
X202982218Y-92399847D01*
X202992446Y-92421471D01*
X203000504Y-92443993D01*
X203006316Y-92467197D01*
X203009826Y-92490858D01*
X203011000Y-92514750D01*
X203011000Y-93002250D01*
X203009826Y-93026142D01*
X203006316Y-93049803D01*
X203000504Y-93073007D01*
X202992446Y-93095529D01*
X202982218Y-93117153D01*
X202969921Y-93137670D01*
X202955671Y-93156883D01*
X202939607Y-93174607D01*
X202921883Y-93190671D01*
X202902670Y-93204921D01*
X202882153Y-93217218D01*
X202860529Y-93227446D01*
X202838007Y-93235504D01*
X202814803Y-93241316D01*
X202791142Y-93244826D01*
X202767250Y-93246000D01*
X201854750Y-93246000D01*
X201830858Y-93244826D01*
X201807197Y-93241316D01*
X201783993Y-93235504D01*
X201761471Y-93227446D01*
X201739847Y-93217218D01*
X201719330Y-93204921D01*
X201700117Y-93190671D01*
X201682393Y-93174607D01*
X201666329Y-93156883D01*
X201652079Y-93137670D01*
X201639782Y-93117153D01*
X201629554Y-93095529D01*
X201621496Y-93073007D01*
X201615684Y-93049803D01*
X201612174Y-93026142D01*
X201611000Y-93002250D01*
X201611000Y-92514750D01*
X201612174Y-92490858D01*
X201615684Y-92467197D01*
X201621496Y-92443993D01*
X201629554Y-92421471D01*
X201639782Y-92399847D01*
X201652079Y-92379330D01*
X201666329Y-92360117D01*
X201682393Y-92342393D01*
X201700117Y-92326329D01*
X201719330Y-92312079D01*
X201739847Y-92299782D01*
X201761471Y-92289554D01*
X201783993Y-92281496D01*
X201807197Y-92275684D01*
X201830858Y-92272174D01*
X201854750Y-92271000D01*
X202767250Y-92271000D01*
X202791142Y-92272174D01*
X202791142Y-92272174D01*
G37*
D13*
X202311000Y-92758500D03*
D12*
G36*
X202791142Y-90397174D02*
X202814803Y-90400684D01*
X202838007Y-90406496D01*
X202860529Y-90414554D01*
X202882153Y-90424782D01*
X202902670Y-90437079D01*
X202921883Y-90451329D01*
X202939607Y-90467393D01*
X202955671Y-90485117D01*
X202969921Y-90504330D01*
X202982218Y-90524847D01*
X202992446Y-90546471D01*
X203000504Y-90568993D01*
X203006316Y-90592197D01*
X203009826Y-90615858D01*
X203011000Y-90639750D01*
X203011000Y-91127250D01*
X203009826Y-91151142D01*
X203006316Y-91174803D01*
X203000504Y-91198007D01*
X202992446Y-91220529D01*
X202982218Y-91242153D01*
X202969921Y-91262670D01*
X202955671Y-91281883D01*
X202939607Y-91299607D01*
X202921883Y-91315671D01*
X202902670Y-91329921D01*
X202882153Y-91342218D01*
X202860529Y-91352446D01*
X202838007Y-91360504D01*
X202814803Y-91366316D01*
X202791142Y-91369826D01*
X202767250Y-91371000D01*
X201854750Y-91371000D01*
X201830858Y-91369826D01*
X201807197Y-91366316D01*
X201783993Y-91360504D01*
X201761471Y-91352446D01*
X201739847Y-91342218D01*
X201719330Y-91329921D01*
X201700117Y-91315671D01*
X201682393Y-91299607D01*
X201666329Y-91281883D01*
X201652079Y-91262670D01*
X201639782Y-91242153D01*
X201629554Y-91220529D01*
X201621496Y-91198007D01*
X201615684Y-91174803D01*
X201612174Y-91151142D01*
X201611000Y-91127250D01*
X201611000Y-90639750D01*
X201612174Y-90615858D01*
X201615684Y-90592197D01*
X201621496Y-90568993D01*
X201629554Y-90546471D01*
X201639782Y-90524847D01*
X201652079Y-90504330D01*
X201666329Y-90485117D01*
X201682393Y-90467393D01*
X201700117Y-90451329D01*
X201719330Y-90437079D01*
X201739847Y-90424782D01*
X201761471Y-90414554D01*
X201783993Y-90406496D01*
X201807197Y-90400684D01*
X201830858Y-90397174D01*
X201854750Y-90396000D01*
X202767250Y-90396000D01*
X202791142Y-90397174D01*
X202791142Y-90397174D01*
G37*
D13*
X202311000Y-90883500D03*
G04 #@! TD*
D12*
G04 #@! TO.C,C2*
G36*
X194275142Y-86169174D02*
X194298803Y-86172684D01*
X194322007Y-86178496D01*
X194344529Y-86186554D01*
X194366153Y-86196782D01*
X194386670Y-86209079D01*
X194405883Y-86223329D01*
X194423607Y-86239393D01*
X194439671Y-86257117D01*
X194453921Y-86276330D01*
X194466218Y-86296847D01*
X194476446Y-86318471D01*
X194484504Y-86340993D01*
X194490316Y-86364197D01*
X194493826Y-86387858D01*
X194495000Y-86411750D01*
X194495000Y-87324250D01*
X194493826Y-87348142D01*
X194490316Y-87371803D01*
X194484504Y-87395007D01*
X194476446Y-87417529D01*
X194466218Y-87439153D01*
X194453921Y-87459670D01*
X194439671Y-87478883D01*
X194423607Y-87496607D01*
X194405883Y-87512671D01*
X194386670Y-87526921D01*
X194366153Y-87539218D01*
X194344529Y-87549446D01*
X194322007Y-87557504D01*
X194298803Y-87563316D01*
X194275142Y-87566826D01*
X194251250Y-87568000D01*
X193763750Y-87568000D01*
X193739858Y-87566826D01*
X193716197Y-87563316D01*
X193692993Y-87557504D01*
X193670471Y-87549446D01*
X193648847Y-87539218D01*
X193628330Y-87526921D01*
X193609117Y-87512671D01*
X193591393Y-87496607D01*
X193575329Y-87478883D01*
X193561079Y-87459670D01*
X193548782Y-87439153D01*
X193538554Y-87417529D01*
X193530496Y-87395007D01*
X193524684Y-87371803D01*
X193521174Y-87348142D01*
X193520000Y-87324250D01*
X193520000Y-86411750D01*
X193521174Y-86387858D01*
X193524684Y-86364197D01*
X193530496Y-86340993D01*
X193538554Y-86318471D01*
X193548782Y-86296847D01*
X193561079Y-86276330D01*
X193575329Y-86257117D01*
X193591393Y-86239393D01*
X193609117Y-86223329D01*
X193628330Y-86209079D01*
X193648847Y-86196782D01*
X193670471Y-86186554D01*
X193692993Y-86178496D01*
X193716197Y-86172684D01*
X193739858Y-86169174D01*
X193763750Y-86168000D01*
X194251250Y-86168000D01*
X194275142Y-86169174D01*
X194275142Y-86169174D01*
G37*
D13*
X194007500Y-86868000D03*
D12*
G36*
X196150142Y-86169174D02*
X196173803Y-86172684D01*
X196197007Y-86178496D01*
X196219529Y-86186554D01*
X196241153Y-86196782D01*
X196261670Y-86209079D01*
X196280883Y-86223329D01*
X196298607Y-86239393D01*
X196314671Y-86257117D01*
X196328921Y-86276330D01*
X196341218Y-86296847D01*
X196351446Y-86318471D01*
X196359504Y-86340993D01*
X196365316Y-86364197D01*
X196368826Y-86387858D01*
X196370000Y-86411750D01*
X196370000Y-87324250D01*
X196368826Y-87348142D01*
X196365316Y-87371803D01*
X196359504Y-87395007D01*
X196351446Y-87417529D01*
X196341218Y-87439153D01*
X196328921Y-87459670D01*
X196314671Y-87478883D01*
X196298607Y-87496607D01*
X196280883Y-87512671D01*
X196261670Y-87526921D01*
X196241153Y-87539218D01*
X196219529Y-87549446D01*
X196197007Y-87557504D01*
X196173803Y-87563316D01*
X196150142Y-87566826D01*
X196126250Y-87568000D01*
X195638750Y-87568000D01*
X195614858Y-87566826D01*
X195591197Y-87563316D01*
X195567993Y-87557504D01*
X195545471Y-87549446D01*
X195523847Y-87539218D01*
X195503330Y-87526921D01*
X195484117Y-87512671D01*
X195466393Y-87496607D01*
X195450329Y-87478883D01*
X195436079Y-87459670D01*
X195423782Y-87439153D01*
X195413554Y-87417529D01*
X195405496Y-87395007D01*
X195399684Y-87371803D01*
X195396174Y-87348142D01*
X195395000Y-87324250D01*
X195395000Y-86411750D01*
X195396174Y-86387858D01*
X195399684Y-86364197D01*
X195405496Y-86340993D01*
X195413554Y-86318471D01*
X195423782Y-86296847D01*
X195436079Y-86276330D01*
X195450329Y-86257117D01*
X195466393Y-86239393D01*
X195484117Y-86223329D01*
X195503330Y-86209079D01*
X195523847Y-86196782D01*
X195545471Y-86186554D01*
X195567993Y-86178496D01*
X195591197Y-86172684D01*
X195614858Y-86169174D01*
X195638750Y-86168000D01*
X196126250Y-86168000D01*
X196150142Y-86169174D01*
X196150142Y-86169174D01*
G37*
D13*
X195882500Y-86868000D03*
G04 #@! TD*
D14*
G04 #@! TO.C,U1*
X187588000Y-85385000D03*
X187588000Y-86035000D03*
X187588000Y-86685000D03*
X187588000Y-87335000D03*
X191888000Y-87335000D03*
X191888000Y-86685000D03*
X191888000Y-86035000D03*
X191888000Y-85385000D03*
G04 #@! TD*
D12*
G04 #@! TO.C,R3*
G36*
X191361142Y-91002174D02*
X191384803Y-91005684D01*
X191408007Y-91011496D01*
X191430529Y-91019554D01*
X191452153Y-91029782D01*
X191472670Y-91042079D01*
X191491883Y-91056329D01*
X191509607Y-91072393D01*
X191525671Y-91090117D01*
X191539921Y-91109330D01*
X191552218Y-91129847D01*
X191562446Y-91151471D01*
X191570504Y-91173993D01*
X191576316Y-91197197D01*
X191579826Y-91220858D01*
X191581000Y-91244750D01*
X191581000Y-91732250D01*
X191579826Y-91756142D01*
X191576316Y-91779803D01*
X191570504Y-91803007D01*
X191562446Y-91825529D01*
X191552218Y-91847153D01*
X191539921Y-91867670D01*
X191525671Y-91886883D01*
X191509607Y-91904607D01*
X191491883Y-91920671D01*
X191472670Y-91934921D01*
X191452153Y-91947218D01*
X191430529Y-91957446D01*
X191408007Y-91965504D01*
X191384803Y-91971316D01*
X191361142Y-91974826D01*
X191337250Y-91976000D01*
X190424750Y-91976000D01*
X190400858Y-91974826D01*
X190377197Y-91971316D01*
X190353993Y-91965504D01*
X190331471Y-91957446D01*
X190309847Y-91947218D01*
X190289330Y-91934921D01*
X190270117Y-91920671D01*
X190252393Y-91904607D01*
X190236329Y-91886883D01*
X190222079Y-91867670D01*
X190209782Y-91847153D01*
X190199554Y-91825529D01*
X190191496Y-91803007D01*
X190185684Y-91779803D01*
X190182174Y-91756142D01*
X190181000Y-91732250D01*
X190181000Y-91244750D01*
X190182174Y-91220858D01*
X190185684Y-91197197D01*
X190191496Y-91173993D01*
X190199554Y-91151471D01*
X190209782Y-91129847D01*
X190222079Y-91109330D01*
X190236329Y-91090117D01*
X190252393Y-91072393D01*
X190270117Y-91056329D01*
X190289330Y-91042079D01*
X190309847Y-91029782D01*
X190331471Y-91019554D01*
X190353993Y-91011496D01*
X190377197Y-91005684D01*
X190400858Y-91002174D01*
X190424750Y-91001000D01*
X191337250Y-91001000D01*
X191361142Y-91002174D01*
X191361142Y-91002174D01*
G37*
D13*
X190881000Y-91488500D03*
D12*
G36*
X191361142Y-89127174D02*
X191384803Y-89130684D01*
X191408007Y-89136496D01*
X191430529Y-89144554D01*
X191452153Y-89154782D01*
X191472670Y-89167079D01*
X191491883Y-89181329D01*
X191509607Y-89197393D01*
X191525671Y-89215117D01*
X191539921Y-89234330D01*
X191552218Y-89254847D01*
X191562446Y-89276471D01*
X191570504Y-89298993D01*
X191576316Y-89322197D01*
X191579826Y-89345858D01*
X191581000Y-89369750D01*
X191581000Y-89857250D01*
X191579826Y-89881142D01*
X191576316Y-89904803D01*
X191570504Y-89928007D01*
X191562446Y-89950529D01*
X191552218Y-89972153D01*
X191539921Y-89992670D01*
X191525671Y-90011883D01*
X191509607Y-90029607D01*
X191491883Y-90045671D01*
X191472670Y-90059921D01*
X191452153Y-90072218D01*
X191430529Y-90082446D01*
X191408007Y-90090504D01*
X191384803Y-90096316D01*
X191361142Y-90099826D01*
X191337250Y-90101000D01*
X190424750Y-90101000D01*
X190400858Y-90099826D01*
X190377197Y-90096316D01*
X190353993Y-90090504D01*
X190331471Y-90082446D01*
X190309847Y-90072218D01*
X190289330Y-90059921D01*
X190270117Y-90045671D01*
X190252393Y-90029607D01*
X190236329Y-90011883D01*
X190222079Y-89992670D01*
X190209782Y-89972153D01*
X190199554Y-89950529D01*
X190191496Y-89928007D01*
X190185684Y-89904803D01*
X190182174Y-89881142D01*
X190181000Y-89857250D01*
X190181000Y-89369750D01*
X190182174Y-89345858D01*
X190185684Y-89322197D01*
X190191496Y-89298993D01*
X190199554Y-89276471D01*
X190209782Y-89254847D01*
X190222079Y-89234330D01*
X190236329Y-89215117D01*
X190252393Y-89197393D01*
X190270117Y-89181329D01*
X190289330Y-89167079D01*
X190309847Y-89154782D01*
X190331471Y-89144554D01*
X190353993Y-89136496D01*
X190377197Y-89130684D01*
X190400858Y-89127174D01*
X190424750Y-89126000D01*
X191337250Y-89126000D01*
X191361142Y-89127174D01*
X191361142Y-89127174D01*
G37*
D13*
X190881000Y-89613500D03*
G04 #@! TD*
D12*
G04 #@! TO.C,C1*
G36*
X186154142Y-86811174D02*
X186177803Y-86814684D01*
X186201007Y-86820496D01*
X186223529Y-86828554D01*
X186245153Y-86838782D01*
X186265670Y-86851079D01*
X186284883Y-86865329D01*
X186302607Y-86881393D01*
X186318671Y-86899117D01*
X186332921Y-86918330D01*
X186345218Y-86938847D01*
X186355446Y-86960471D01*
X186363504Y-86982993D01*
X186369316Y-87006197D01*
X186372826Y-87029858D01*
X186374000Y-87053750D01*
X186374000Y-87541250D01*
X186372826Y-87565142D01*
X186369316Y-87588803D01*
X186363504Y-87612007D01*
X186355446Y-87634529D01*
X186345218Y-87656153D01*
X186332921Y-87676670D01*
X186318671Y-87695883D01*
X186302607Y-87713607D01*
X186284883Y-87729671D01*
X186265670Y-87743921D01*
X186245153Y-87756218D01*
X186223529Y-87766446D01*
X186201007Y-87774504D01*
X186177803Y-87780316D01*
X186154142Y-87783826D01*
X186130250Y-87785000D01*
X185217750Y-87785000D01*
X185193858Y-87783826D01*
X185170197Y-87780316D01*
X185146993Y-87774504D01*
X185124471Y-87766446D01*
X185102847Y-87756218D01*
X185082330Y-87743921D01*
X185063117Y-87729671D01*
X185045393Y-87713607D01*
X185029329Y-87695883D01*
X185015079Y-87676670D01*
X185002782Y-87656153D01*
X184992554Y-87634529D01*
X184984496Y-87612007D01*
X184978684Y-87588803D01*
X184975174Y-87565142D01*
X184974000Y-87541250D01*
X184974000Y-87053750D01*
X184975174Y-87029858D01*
X184978684Y-87006197D01*
X184984496Y-86982993D01*
X184992554Y-86960471D01*
X185002782Y-86938847D01*
X185015079Y-86918330D01*
X185029329Y-86899117D01*
X185045393Y-86881393D01*
X185063117Y-86865329D01*
X185082330Y-86851079D01*
X185102847Y-86838782D01*
X185124471Y-86828554D01*
X185146993Y-86820496D01*
X185170197Y-86814684D01*
X185193858Y-86811174D01*
X185217750Y-86810000D01*
X186130250Y-86810000D01*
X186154142Y-86811174D01*
X186154142Y-86811174D01*
G37*
D13*
X185674000Y-87297500D03*
D12*
G36*
X186154142Y-84936174D02*
X186177803Y-84939684D01*
X186201007Y-84945496D01*
X186223529Y-84953554D01*
X186245153Y-84963782D01*
X186265670Y-84976079D01*
X186284883Y-84990329D01*
X186302607Y-85006393D01*
X186318671Y-85024117D01*
X186332921Y-85043330D01*
X186345218Y-85063847D01*
X186355446Y-85085471D01*
X186363504Y-85107993D01*
X186369316Y-85131197D01*
X186372826Y-85154858D01*
X186374000Y-85178750D01*
X186374000Y-85666250D01*
X186372826Y-85690142D01*
X186369316Y-85713803D01*
X186363504Y-85737007D01*
X186355446Y-85759529D01*
X186345218Y-85781153D01*
X186332921Y-85801670D01*
X186318671Y-85820883D01*
X186302607Y-85838607D01*
X186284883Y-85854671D01*
X186265670Y-85868921D01*
X186245153Y-85881218D01*
X186223529Y-85891446D01*
X186201007Y-85899504D01*
X186177803Y-85905316D01*
X186154142Y-85908826D01*
X186130250Y-85910000D01*
X185217750Y-85910000D01*
X185193858Y-85908826D01*
X185170197Y-85905316D01*
X185146993Y-85899504D01*
X185124471Y-85891446D01*
X185102847Y-85881218D01*
X185082330Y-85868921D01*
X185063117Y-85854671D01*
X185045393Y-85838607D01*
X185029329Y-85820883D01*
X185015079Y-85801670D01*
X185002782Y-85781153D01*
X184992554Y-85759529D01*
X184984496Y-85737007D01*
X184978684Y-85713803D01*
X184975174Y-85690142D01*
X184974000Y-85666250D01*
X184974000Y-85178750D01*
X184975174Y-85154858D01*
X184978684Y-85131197D01*
X184984496Y-85107993D01*
X184992554Y-85085471D01*
X185002782Y-85063847D01*
X185015079Y-85043330D01*
X185029329Y-85024117D01*
X185045393Y-85006393D01*
X185063117Y-84990329D01*
X185082330Y-84976079D01*
X185102847Y-84963782D01*
X185124471Y-84953554D01*
X185146993Y-84945496D01*
X185170197Y-84939684D01*
X185193858Y-84936174D01*
X185217750Y-84935000D01*
X186130250Y-84935000D01*
X186154142Y-84936174D01*
X186154142Y-84936174D01*
G37*
D13*
X185674000Y-85422500D03*
G04 #@! TD*
D12*
G04 #@! TO.C,R2*
G36*
X188821142Y-89127174D02*
X188844803Y-89130684D01*
X188868007Y-89136496D01*
X188890529Y-89144554D01*
X188912153Y-89154782D01*
X188932670Y-89167079D01*
X188951883Y-89181329D01*
X188969607Y-89197393D01*
X188985671Y-89215117D01*
X188999921Y-89234330D01*
X189012218Y-89254847D01*
X189022446Y-89276471D01*
X189030504Y-89298993D01*
X189036316Y-89322197D01*
X189039826Y-89345858D01*
X189041000Y-89369750D01*
X189041000Y-89857250D01*
X189039826Y-89881142D01*
X189036316Y-89904803D01*
X189030504Y-89928007D01*
X189022446Y-89950529D01*
X189012218Y-89972153D01*
X188999921Y-89992670D01*
X188985671Y-90011883D01*
X188969607Y-90029607D01*
X188951883Y-90045671D01*
X188932670Y-90059921D01*
X188912153Y-90072218D01*
X188890529Y-90082446D01*
X188868007Y-90090504D01*
X188844803Y-90096316D01*
X188821142Y-90099826D01*
X188797250Y-90101000D01*
X187884750Y-90101000D01*
X187860858Y-90099826D01*
X187837197Y-90096316D01*
X187813993Y-90090504D01*
X187791471Y-90082446D01*
X187769847Y-90072218D01*
X187749330Y-90059921D01*
X187730117Y-90045671D01*
X187712393Y-90029607D01*
X187696329Y-90011883D01*
X187682079Y-89992670D01*
X187669782Y-89972153D01*
X187659554Y-89950529D01*
X187651496Y-89928007D01*
X187645684Y-89904803D01*
X187642174Y-89881142D01*
X187641000Y-89857250D01*
X187641000Y-89369750D01*
X187642174Y-89345858D01*
X187645684Y-89322197D01*
X187651496Y-89298993D01*
X187659554Y-89276471D01*
X187669782Y-89254847D01*
X187682079Y-89234330D01*
X187696329Y-89215117D01*
X187712393Y-89197393D01*
X187730117Y-89181329D01*
X187749330Y-89167079D01*
X187769847Y-89154782D01*
X187791471Y-89144554D01*
X187813993Y-89136496D01*
X187837197Y-89130684D01*
X187860858Y-89127174D01*
X187884750Y-89126000D01*
X188797250Y-89126000D01*
X188821142Y-89127174D01*
X188821142Y-89127174D01*
G37*
D13*
X188341000Y-89613500D03*
D12*
G36*
X188821142Y-91002174D02*
X188844803Y-91005684D01*
X188868007Y-91011496D01*
X188890529Y-91019554D01*
X188912153Y-91029782D01*
X188932670Y-91042079D01*
X188951883Y-91056329D01*
X188969607Y-91072393D01*
X188985671Y-91090117D01*
X188999921Y-91109330D01*
X189012218Y-91129847D01*
X189022446Y-91151471D01*
X189030504Y-91173993D01*
X189036316Y-91197197D01*
X189039826Y-91220858D01*
X189041000Y-91244750D01*
X189041000Y-91732250D01*
X189039826Y-91756142D01*
X189036316Y-91779803D01*
X189030504Y-91803007D01*
X189022446Y-91825529D01*
X189012218Y-91847153D01*
X188999921Y-91867670D01*
X188985671Y-91886883D01*
X188969607Y-91904607D01*
X188951883Y-91920671D01*
X188932670Y-91934921D01*
X188912153Y-91947218D01*
X188890529Y-91957446D01*
X188868007Y-91965504D01*
X188844803Y-91971316D01*
X188821142Y-91974826D01*
X188797250Y-91976000D01*
X187884750Y-91976000D01*
X187860858Y-91974826D01*
X187837197Y-91971316D01*
X187813993Y-91965504D01*
X187791471Y-91957446D01*
X187769847Y-91947218D01*
X187749330Y-91934921D01*
X187730117Y-91920671D01*
X187712393Y-91904607D01*
X187696329Y-91886883D01*
X187682079Y-91867670D01*
X187669782Y-91847153D01*
X187659554Y-91825529D01*
X187651496Y-91803007D01*
X187645684Y-91779803D01*
X187642174Y-91756142D01*
X187641000Y-91732250D01*
X187641000Y-91244750D01*
X187642174Y-91220858D01*
X187645684Y-91197197D01*
X187651496Y-91173993D01*
X187659554Y-91151471D01*
X187669782Y-91129847D01*
X187682079Y-91109330D01*
X187696329Y-91090117D01*
X187712393Y-91072393D01*
X187730117Y-91056329D01*
X187749330Y-91042079D01*
X187769847Y-91029782D01*
X187791471Y-91019554D01*
X187813993Y-91011496D01*
X187837197Y-91005684D01*
X187860858Y-91002174D01*
X187884750Y-91001000D01*
X188797250Y-91001000D01*
X188821142Y-91002174D01*
X188821142Y-91002174D01*
G37*
D13*
X188341000Y-91488500D03*
G04 #@! TD*
D12*
G04 #@! TO.C,R1*
G36*
X186662142Y-91002174D02*
X186685803Y-91005684D01*
X186709007Y-91011496D01*
X186731529Y-91019554D01*
X186753153Y-91029782D01*
X186773670Y-91042079D01*
X186792883Y-91056329D01*
X186810607Y-91072393D01*
X186826671Y-91090117D01*
X186840921Y-91109330D01*
X186853218Y-91129847D01*
X186863446Y-91151471D01*
X186871504Y-91173993D01*
X186877316Y-91197197D01*
X186880826Y-91220858D01*
X186882000Y-91244750D01*
X186882000Y-91732250D01*
X186880826Y-91756142D01*
X186877316Y-91779803D01*
X186871504Y-91803007D01*
X186863446Y-91825529D01*
X186853218Y-91847153D01*
X186840921Y-91867670D01*
X186826671Y-91886883D01*
X186810607Y-91904607D01*
X186792883Y-91920671D01*
X186773670Y-91934921D01*
X186753153Y-91947218D01*
X186731529Y-91957446D01*
X186709007Y-91965504D01*
X186685803Y-91971316D01*
X186662142Y-91974826D01*
X186638250Y-91976000D01*
X185725750Y-91976000D01*
X185701858Y-91974826D01*
X185678197Y-91971316D01*
X185654993Y-91965504D01*
X185632471Y-91957446D01*
X185610847Y-91947218D01*
X185590330Y-91934921D01*
X185571117Y-91920671D01*
X185553393Y-91904607D01*
X185537329Y-91886883D01*
X185523079Y-91867670D01*
X185510782Y-91847153D01*
X185500554Y-91825529D01*
X185492496Y-91803007D01*
X185486684Y-91779803D01*
X185483174Y-91756142D01*
X185482000Y-91732250D01*
X185482000Y-91244750D01*
X185483174Y-91220858D01*
X185486684Y-91197197D01*
X185492496Y-91173993D01*
X185500554Y-91151471D01*
X185510782Y-91129847D01*
X185523079Y-91109330D01*
X185537329Y-91090117D01*
X185553393Y-91072393D01*
X185571117Y-91056329D01*
X185590330Y-91042079D01*
X185610847Y-91029782D01*
X185632471Y-91019554D01*
X185654993Y-91011496D01*
X185678197Y-91005684D01*
X185701858Y-91002174D01*
X185725750Y-91001000D01*
X186638250Y-91001000D01*
X186662142Y-91002174D01*
X186662142Y-91002174D01*
G37*
D13*
X186182000Y-91488500D03*
D12*
G36*
X186662142Y-89127174D02*
X186685803Y-89130684D01*
X186709007Y-89136496D01*
X186731529Y-89144554D01*
X186753153Y-89154782D01*
X186773670Y-89167079D01*
X186792883Y-89181329D01*
X186810607Y-89197393D01*
X186826671Y-89215117D01*
X186840921Y-89234330D01*
X186853218Y-89254847D01*
X186863446Y-89276471D01*
X186871504Y-89298993D01*
X186877316Y-89322197D01*
X186880826Y-89345858D01*
X186882000Y-89369750D01*
X186882000Y-89857250D01*
X186880826Y-89881142D01*
X186877316Y-89904803D01*
X186871504Y-89928007D01*
X186863446Y-89950529D01*
X186853218Y-89972153D01*
X186840921Y-89992670D01*
X186826671Y-90011883D01*
X186810607Y-90029607D01*
X186792883Y-90045671D01*
X186773670Y-90059921D01*
X186753153Y-90072218D01*
X186731529Y-90082446D01*
X186709007Y-90090504D01*
X186685803Y-90096316D01*
X186662142Y-90099826D01*
X186638250Y-90101000D01*
X185725750Y-90101000D01*
X185701858Y-90099826D01*
X185678197Y-90096316D01*
X185654993Y-90090504D01*
X185632471Y-90082446D01*
X185610847Y-90072218D01*
X185590330Y-90059921D01*
X185571117Y-90045671D01*
X185553393Y-90029607D01*
X185537329Y-90011883D01*
X185523079Y-89992670D01*
X185510782Y-89972153D01*
X185500554Y-89950529D01*
X185492496Y-89928007D01*
X185486684Y-89904803D01*
X185483174Y-89881142D01*
X185482000Y-89857250D01*
X185482000Y-89369750D01*
X185483174Y-89345858D01*
X185486684Y-89322197D01*
X185492496Y-89298993D01*
X185500554Y-89276471D01*
X185510782Y-89254847D01*
X185523079Y-89234330D01*
X185537329Y-89215117D01*
X185553393Y-89197393D01*
X185571117Y-89181329D01*
X185590330Y-89167079D01*
X185610847Y-89154782D01*
X185632471Y-89144554D01*
X185654993Y-89136496D01*
X185678197Y-89130684D01*
X185701858Y-89127174D01*
X185725750Y-89126000D01*
X186638250Y-89126000D01*
X186662142Y-89127174D01*
X186662142Y-89127174D01*
G37*
D13*
X186182000Y-89613500D03*
G04 #@! TD*
M02*
